<svg id="Capa_1" data-name="Capa 1" xmlns="http://www.w3.org/2000/svg" xmlns:xlink="http://www.w3.org/1999/xlink" viewBox="0 0 700 600"><defs><style>.cls-1{fill:#80fcea;}.cls-2{fill:#efeeee;}.cls-3{fill:#abadb3;}.cls-4{fill:#fff;}.cls-5{fill:#283847;}.cls-6{fill:#242c3c;}.cls-7{fill:#6e6e6e;}.cls-8{fill:#ab5b90;}.cls-9{fill:#c2c3c5;}.cls-10{fill:#8354a5;}.cls-11{fill:url(#Degradado_sin_nombre_6);}</style><linearGradient id="Degradado_sin_nombre_6" x1="113.72" y1="176.9" x2="586.28" y2="176.9" gradientUnits="userSpaceOnUse"><stop offset="0" stop-color="#8354a5"/><stop offset="0.99" stop-color="#ab5b90"/></linearGradient></defs><title>iconcode</title><path class="cls-1" d="M79.08,554.42C12.34,486.52-68.6,176.57,216.8,166.6c38.36-74.8,78.08-126.77,172-120.51,98.81,6.58,121.83,84.83,126.43,149.47,94.37-23.21,296.91,186.24,56.39,358.86Z"/><polygon class="cls-2" points="419.02 535.77 280.98 535.77 294.78 484.98 297.16 476.3 402.21 476.3 404.67 484.98 419.02 535.77"/><polygon class="cls-3" points="404.94 484.98 295.06 484.98 297.44 476.3 402.49 476.3 404.94 484.98"/><rect class="cls-4" x="242.12" y="535.77" width="215.76" height="18.65"/><path class="cls-5" d="M590.7,148.84H109.34a13,13,0,0,0-13,13V432.36H603.7V161.84A13,13,0,0,0,590.7,148.84Z"/><path class="cls-4" d="M602.86,432.36a44.07,44.07,0,0,1-43.94,43.94H141.08a44.07,44.07,0,0,1-43.94-43.94Z"/><circle class="cls-6" cx="350" cy="454.33" r="9.75"/><rect class="cls-4" x="113.72" y="164.24" width="472.56" height="255.46"/><rect class="cls-7" x="139.95" y="200.99" width="10.85" height="10.6"/><rect class="cls-7" x="139.95" y="220.94" width="10.85" height="10.6"/><rect class="cls-7" x="139.95" y="240.89" width="10.85" height="10.6"/><rect class="cls-7" x="139.95" y="260.84" width="10.85" height="10.6"/><rect class="cls-7" x="139.95" y="280.79" width="10.85" height="10.6"/><rect class="cls-7" x="139.95" y="300.74" width="10.85" height="10.6"/><rect class="cls-7" x="139.95" y="320.69" width="10.85" height="10.6"/><rect class="cls-7" x="139.95" y="340.64" width="10.85" height="10.6"/><rect class="cls-7" x="139.95" y="360.58" width="10.85" height="10.6"/><rect class="cls-7" x="139.95" y="380.53" width="10.85" height="10.6"/><rect class="cls-7" x="139.95" y="400.48" width="10.85" height="10.6"/><rect class="cls-8" x="163.24" y="200.99" width="59.01" height="10.6"/><rect class="cls-8" x="163.24" y="220.94" width="94.74" height="10.6"/><rect class="cls-9" x="181.9" y="240.89" width="44.82" height="10.6"/><rect class="cls-9" x="239.32" y="240.89" width="28.87" height="10.6"/><rect class="cls-10" x="163.24" y="260.84" width="53.96" height="10.6"/><rect class="cls-8" x="163.24" y="280.79" width="90.51" height="10.6"/><rect class="cls-9" x="274.25" y="280.79" width="59.01" height="10.6"/><rect class="cls-10" x="353.36" y="280.79" width="44.98" height="10.6"/><rect class="cls-10" x="356.78" y="320.69" width="56.87" height="10.6"/><rect class="cls-10" x="314.39" y="340.64" width="45.02" height="10.6"/><rect class="cls-9" x="181.9" y="300.74" width="125.2" height="10.6"/><rect class="cls-9" x="325.44" y="300.74" width="125.2" height="10.6"/><rect class="cls-8" x="163.24" y="320.69" width="59.01" height="10.6"/><rect class="cls-9" x="238.68" y="320.69" width="104.15" height="10.6"/><rect class="cls-9" x="181.9" y="340.64" width="114.36" height="10.6"/><rect class="cls-9" x="426.88" y="320.69" width="83.74" height="10.6"/><rect class="cls-9" x="375.85" y="340.64" width="89.48" height="10.6"/><rect class="cls-8" x="163.24" y="380.53" width="90.51" height="10.6"/><rect class="cls-9" x="163.24" y="400.48" width="111.01" height="10.6"/><rect class="cls-11" x="113.72" y="163.58" width="472.56" height="26.63"/></svg>