<svg id="Capa_1" data-name="Capa 1" xmlns="http://www.w3.org/2000/svg" viewBox="0 0 700 600"><defs><style>.cls-1{fill:#80fcea;}.cls-2{fill:#fff;}.cls-3{fill:#c2c3c5;}.cls-4{fill:#ab5b90;}.cls-5{fill:#304a5e;}.cls-6{fill:#ea80fc;}</style></defs><title>iconcertificates</title><path class="cls-1" d="M79.08,523.11C12.34,455.22-68.6,145.26,216.8,135.29c38.36-74.8,78.08-126.77,172-120.51,98.81,6.58,121.83,84.83,126.43,149.47C609.61,141,812.15,350.49,571.63,523.11Z"/><path class="cls-2" d="M604.82,148.32v328.6a12.49,12.49,0,0,1-12.49,12.49H107.67a12.47,12.47,0,0,1-12.49-12.49V148.32a12.5,12.5,0,0,1,12.49-12.5H592.33A12.51,12.51,0,0,1,604.82,148.32Z"/><path class="cls-3" d="M575,464.27H125V161H575ZM139.68,449.63H560.32v-274H139.68Z"/><rect class="cls-4" x="263.43" y="221.18" width="191.43" height="21.95"/><rect class="cls-3" x="187.84" y="273.61" width="324.33" height="13.41"/><rect class="cls-3" x="187.84" y="305.91" width="324.33" height="13.41"/><rect class="cls-3" x="232.95" y="343.11" width="279.21" height="13.41"/><polygon class="cls-5" points="383.36 452.5 341.11 542.79 382.37 535.48 395.85 572.06 446.27 471.34 383.36 452.5"/><polygon class="cls-5" points="478.39 447.88 527.16 556.47 485.9 549.15 472.42 585.73 415.48 466.73 478.39 447.88"/><path class="cls-6" d="M542.39,386.46c4.3-5.27,3.8-14-.64-19.6-5.21-6.55-8.51-12.44-4.53-21.4,3.4-7.61.06-15.06-7.43-18.9-7.73-4-11.52-9.51-12.2-18.15-.65-8.13-5.86-12.81-13.93-14-4.76-.66-9.5-1.18-13.11-4.84-5.08-5.67-7.57-14-16.17-16.1-3.64-.54-7.07.46-10.57,1.25-4.42,1-9.55,2-13-1.06-10-8.85-20-8.81-30.7-1.76-5.29,6.32-11.48,3.47-17.57,1.73-2.15-.06-4.31-.11-6.46-.15-7.43,2-11.2,7.9-14.76,14-2.74,5-7.81,6.22-12.67,6.62-8.49.71-13.51,4.84-15.77,12.32-2.16,3.58-3.37,8.11-3.85,13.38a11,11,0,0,1-3.21,1.91c-2,1.72-3.79,3.75-6,5.11-4.53,2.78-7.14,6.43-7.88,10.68-1.75,3.62-2.07,7.95-1.33,12.87a26.24,26.24,0,0,1,2.43,6.86,23.93,23.93,0,0,1-4.56,9.62,20.11,20.11,0,0,0-2.6,4.49c-4.3,5.27-3.8,14,.64,19.6,5.21,6.55,8.51,12.44,4.52,21.4-3.39,7.61-.05,15.06,7.44,18.9,7.73,4,11.52,9.51,12.2,18.15.65,8.13,5.85,12.81,13.93,13.94,4.76.67,9.5,1.19,13.11,4.85,5.08,5.67,7.57,14,16.17,16.1,3.64.54,7.07-.46,10.57-1.25,4.42-1,9.55-2,13,1.06,10,8.85,20,8.81,30.7,1.75,5.29-6.31,11.48-3.46,17.57-1.72,2.15.06,4.31.11,6.46.15,7.43-2,11.2-7.9,14.76-14,2.74-5,7.8-6.22,12.67-6.62,8.49-.71,13.51-4.84,15.77-12.32,2.15-3.58,3.37-8.11,3.85-13.38a11,11,0,0,1,3.21-1.91c2-1.72,3.79-3.75,6-5.11,4.53-2.78,7.14-6.43,7.88-10.68,1.75-3.62,2.07-7.95,1.32-12.87a26.56,26.56,0,0,1-2.42-6.86,23.87,23.87,0,0,1,4.56-9.62A20.11,20.11,0,0,0,542.39,386.46Z"/><path class="cls-2" d="M434.13,460.63a81.7,81.7,0,1,1,81.71-81.7A81.8,81.8,0,0,1,434.13,460.63Zm0-145.09a63.39,63.39,0,1,0,63.4,63.39A63.46,63.46,0,0,0,434.13,315.54Z"/></svg>