<?xml version="1.0" encoding="utf-8"?>
<!-- Generator: Adobe Illustrator 21.0.0, SVG Export Plug-In . SVG Version: 6.00 Build 0)  -->
<svg version="1.1" id="Capa_1" xmlns="http://www.w3.org/2000/svg" xmlns:xlink="http://www.w3.org/1999/xlink" x="0px" y="0px"
	 viewBox="0 0 700 600" style="enable-background:new 0 0 700 600;" xml:space="preserve">
<style type="text/css">
	.st0{fill:#80FCEA;}
	.st1{fill:#EA80FC;}
	.st2{fill:#888889;}
</style>
<title>iconweb</title>
<path class="st0" d="M89.1,554.4C22.3,486.5-58.6,176.6,226.8,166.6c38.4-74.8,78.1-126.8,172-120.5
	c98.8,6.6,121.8,84.8,126.4,149.5c94.4-23.2,296.9,186.2,56.4,358.9H89.1z"/>
<path class="st1" d="M271.9,204.7c0-0.3,0.1-0.5,0.1-0.7h-3.6c1,0.1,2,0.3,3,0.6C271.6,204.6,271.8,204.7,271.9,204.7z"/>
<path class="st1" d="M340.9,425.3c-0.1-0.1-0.1-0.2-0.2-0.3c-0.1,0-0.2,0-0.2,0.1c1.3,2.8,2.8,5.4,4.7,7.7c0.1,0,0.2,0,0.2,0.1
	C344,430.2,342.3,427.7,340.9,425.3z"/>
<path class="st1" d="M285.7,204c2.4,1.6,4.4,3.5,5.7,6.3c1.4,2.8,0.4,5.9-2.4,7.1c0,0.1,0.1,0.1,0.1,0.2c0.3,0.5,0.5,1,0.6,1.5
	c0.5,1.2,1,2.4,1.3,3.6c2.6,8.3-0.9,15.8-10.4,13.9c-1-0.2-1.7-0.6-2.3-1.1c-7.1,2.4-14.1,5.1-20.9,8.3c-4.7,2.2-9.3,5-14.5,6
	c-2.8,0.5-6,0.6-8.4-0.8c-3.3,1.8-6.5,3.7-9.6,5.7c-0.8,4.4-2,8.8-2.9,13.3v27.2c0.9,6.5,1.5,13,0.1,19.6c0,0.1-0.1,0.2-0.1,0.3v5
	c6.2,20.6,20.4,37.7,28.3,57.7c1.3,3.3-1.1,5.6-3.9,5.9c4.5,10.9,17,19.1,24.3,27.9c0.9,0.4,1.8,0.8,2.7,1.2
	c4.5-2.7,10-4.2,14.9-5.3c5.9-1.4,12.4-2.9,18.3-1.2c0.9-1.6,2.6-2.8,4.5-2.8c3.5,0,7,0.3,10.2,2c0.9,0.5,1.5,1.2,1.9,2.1
	c0.9-0.1,1.8-0.3,2.6-0.7c-0.1-1-0.1-2.1-0.1-3.1c0-3.2,3.2-5.7,6.3-4.8c0.2,0.1,0.5,0.2,0.7,0.3c0.1-0.2,0.2-0.4,0.3-0.5
	c1.1-1.8,3.6-3,5.6-2.3c3.9,1.3,8.1,2.7,10.5,6.2c1.9,2.7,2.4,6.3,1.6,9.5c2,3.6,3.6,7.5,5.2,11.2c1,2.4,0.2,4.6-1.3,6.1
	c1.3,2.6,2.2,5.3,2.7,8.2c0.1,0.1,0.2,0.3,0.3,0.4h172.3V204H285.7z"/>
<g>
	<g id="Page-1_1_">
		<g id="_x30_66---Contact_1_" transform="translate(-1)">
			<path id="Shape_5_" class="st2" d="M518.2,197.7H297.7l-14.3-47.2c-3.4-11-15-17.2-26-14l-31.6,9.3c-3.5,1-6.6,2.9-9.2,5.6
				L181,188.2c-2.7,2.8-4.5,6.3-5.3,10.1c-3.6,16.8-13.7,77.5,10.1,156.2s65.8,124,78.2,136.1c2.8,2.7,6.2,4.6,10,5.5l50.3,11.6
				c1.6,0.4,3.1,0.5,4.7,0.5c2,0,4-0.3,6-0.9l17.5-5.2l14.1-4.2c5.4-1.5,9.9-5.2,12.5-10.1c2.6-4.8,3.2-10.5,1.6-15.8l-7.9-26h145.4
				c13.7,0,24.8-11.1,24.8-24.8V222.5C543,208.8,531.9,197.7,518.2,197.7L518.2,197.7z M420.4,320l109.5-101.6
				c0.5,1.3,0.8,2.7,0.8,4.1v198.7c0,1.3-0.3,2.6-0.7,3.9L420.4,320z M518.2,210.1c0.7,0,1.4,0.1,2.1,0.2L390.2,331
				c-4.8,4.4-12.1,4.4-16.9,0l-89.4-82.8l6.6-1.9c5.4-1.6,9.9-5.2,12.5-10.1c2.6-4.8,3.2-10.5,1.6-15.8l-3.1-10.3L518.2,210.1z
				 M268.1,391.6c-12.8-15.7-22.4-33.8-28-53.3c-8-24.5-9.1-50.8-3.2-75.9c0.1-0.3,0.4-0.6,0.8-0.7l32.3-9.5l72.9,67.5L268.1,391.6z
				 M368.1,482c-1.1,2-2.9,3.5-5.1,4.1l-8.2,2.4l-15.1-50c-0.6-2.2-2.3-3.8-4.5-4.3s-4.5,0.2-6,1.8s-2,4-1.4,6.1l15.1,50l-11.5,3.4
				c-1.4,0.4-3,0.5-4.4,0.1L276.7,484c-1.6-0.4-3-1.2-4.1-2.3c-11.8-11.5-52.1-55-75-130.8s-13.3-134-9.9-150c0.3-1.5,1.1-3,2.2-4.1
				l35.6-36.9c1-1.1,2.3-1.8,3.7-2.3l11.6-3.4l15.1,50c0.8,2.6,3.2,4.4,5.9,4.4c0.6,0,1.2-0.1,1.8-0.3c3.3-1,5.1-4.5,4.1-7.7
				l-15.1-50l8.2-2.4c4.5-1.4,9.3,1.2,10.7,5.7l21.1,69.9c0.6,2.1,0.4,4.4-0.6,6.3c-1.1,2-2.9,3.5-5.1,4.1l-8.2,2.4l-2.4-8.1
				c-1.1-3.2-4.5-5-7.7-4c-3.2,1-5.1,4.3-4.2,7.6l2.4,8l-32.7,9.6c-4.5,1.3-8,4.8-9.2,9.3c-6.6,27.3-5.4,56,3.3,82.7
				c7.6,27.1,22.5,51.7,43.1,70.9c3.5,3.1,8.4,4.1,12.8,2.8l32.7-9.6l2.4,8.1c0.6,2.2,2.3,3.8,4.5,4.3c2.2,0.5,4.5-0.2,6-1.8
				c1.5-1.6,2-4,1.4-6.1l-2.4-8l8.2-2.4c4.5-1.3,9.3,1.2,10.7,5.7l21.1,69.9C369.4,477.8,369.2,480,368.1,482L368.1,482z M369,433.7
				l-9.5-31.5c-3.4-11-15-17.3-26.1-14l-52.8,15.6c-0.4,0.1-0.8,0-1.1-0.2c-0.9-0.8-1.9-1.7-3-2.8l75.5-72.5l12.8,11.9
				c9.5,8.8,24.2,8.8,33.8,0l12.5-11.6l109.3,104.9c-0.8,0.2-1.6,0.3-2.4,0.3H369z"/>
			<path id="Shape_4_" class="st2" d="M331.9,234.9h99.4c3.4,0,6.2-2.8,6.2-6.2c0-3.4-2.8-6.2-6.2-6.2h-99.4c-3.4,0-6.2,2.8-6.2,6.2
				C325.7,232.2,328.4,234.9,331.9,234.9z"/>
			<path id="Shape_3_" class="st2" d="M512,272.2c-3.4,0-6.2,2.8-6.2,6.2v86.9c0,3.4,2.8,6.2,6.2,6.2c3.4,0,6.2-2.8,6.2-6.2v-86.9
				C518.2,275,515.4,272.2,512,272.2z"/>
		</g>
	</g>
</g>
</svg>
