<svg id="Capa_1" data-name="Capa 1" xmlns="http://www.w3.org/2000/svg" viewBox="0 0 700 600"><defs><style>.cls-1{fill:#80fcea;}.cls-2{fill:#efeeee;}.cls-3{fill:#abadb3;}.cls-4{fill:#fff;}.cls-5{fill:#283847;}.cls-6{fill:#c2c3c5;}.cls-7{fill:#ab5b90;}.cls-8{fill:#ea80fc;}.cls-9{fill:#242c3c;}</style></defs><title>iconweb</title><path class="cls-1" d="M79.08,554.42C12.34,486.52-68.6,176.57,216.8,166.6c38.36-74.8,78.08-126.77,172-120.51,98.81,6.58,121.83,84.83,126.43,149.47,94.37-23.21,296.91,186.24,56.39,358.86Z"/><polygon class="cls-2" points="419.02 535.77 280.98 535.77 294.78 484.98 297.16 476.3 402.21 476.3 404.67 484.98 419.02 535.77"/><polygon class="cls-3" points="404.94 484.98 295.06 484.98 297.44 476.3 402.49 476.3 404.94 484.98"/><rect class="cls-4" x="242.12" y="535.77" width="215.76" height="18.65"/><path class="cls-5" d="M590.7,148.84H109.34a13,13,0,0,0-13,13V432.36H603.7V161.84A13,13,0,0,0,590.7,148.84Z"/><path class="cls-4" d="M602.86,432.36a44.07,44.07,0,0,1-43.94,43.94H141.08a44.07,44.07,0,0,1-43.94-43.94Z"/><rect class="cls-4" x="113.72" y="162.93" width="472.56" height="255.35"/><rect class="cls-6" x="135.48" y="184.08" width="242.5" height="213.9"/><rect class="cls-7" x="396.63" y="184.08" width="167.88" height="59.86"/><rect class="cls-8" x="396.63" y="261.09" width="167.88" height="136.88"/><circle class="cls-9" cx="350" cy="454.33" r="9.75"/></svg>