<?xml version="1.0" encoding="utf-8"?>
<!-- Generator: Adobe Illustrator 21.0.0, SVG Export Plug-In . SVG Version: 6.00 Build 0)  -->
<svg version="1.1" xmlns="http://www.w3.org/2000/svg" xmlns:xlink="http://www.w3.org/1999/xlink" x="0px" y="0px"
	 viewBox="0 0 500 500" style="enable-background:new 0 0 500 500;" xml:space="preserve">
<style type="text/css">
	.st0{fill:#EBEBEB;}
	.st1{fill:#E0E0E0;}
	.st2{fill:#F5F5F5;}
	.st3{fill:#E6E6E6;enable-background:new    ;}
	.st4{display:none;}
	.st5{display:inline;}
	.st6{fill:#407BFF;}
	.st7{opacity:0.9;fill:#FFFFFF;}
	.st8{opacity:0.8;fill:#FFFFFF;enable-background:new    ;}
	.st9{opacity:0.1;enable-background:new    ;}
	.st10{opacity:0.4;fill:#407BFF;}
	.st11{opacity:0.4;fill:#FFFFFF;enable-background:new    ;}
	.st12{fill:#B64FC8;}
	.st13{opacity:0.6;fill:#FFFFFF;enable-background:new    ;}
	.st14{opacity:0.3;fill:#FFFFFF;enable-background:new    ;}
	.st15{opacity:0.2;fill:#FFFFFF;enable-background:new    ;}
	.st16{fill:#E4897B;}
	.st17{opacity:0.5;fill:#FFFFFF;enable-background:new    ;}
	.st18{opacity:0.2;enable-background:new    ;}
	.st19{fill:#263238;}
	.st20{fill:#EBB376;}
	.st21{fill:#FFB2FF;}
	.st22{opacity:0.6;fill:#FFB2FF;enable-background:new    ;}
	.st23{fill:none;stroke:#263238;stroke-width:0.5;stroke-linecap:round;stroke-linejoin:round;stroke-miterlimit:10;}
	.st24{fill:#DE5753;}
	.st25{fill:none;stroke:#263238;stroke-width:0.7247;stroke-linecap:round;stroke-linejoin:round;stroke-miterlimit:10;}
	.st26{fill:#FFFFFF;}
</style>
<g id="Background_Complete">
	<g>
		<g>
			<g>
				<path class="st0" d="M418.6,350.3c0.2-1,3.7-25.2-3.4-33.5c-1.6-1.8-3.5-2.8-5.8-2.9c-14.2-0.3-16.1,11-16.1,11.2l1.7,0.3
					c0.1-0.4,1.7-10,14.4-9.7c1.8,0,3.3,0.8,4.6,2.3c6.5,7.8,3,31.9,3,32.2L418.6,350.3z"/>
			</g>
			<g>
				<path class="st0" d="M419.4,349.2l1.7-0.1c0-0.2-0.6-22.2,10.3-26.8c10.6-4.5,15.4,4.7,15.6,5.1l1.5-0.8
					c-0.1-0.1-5.7-11-17.8-5.9C418.8,325.7,419.4,348.2,419.4,349.2z"/>
			</g>
			<g>
				<path class="st0" d="M419.4,350.9c0-0.4,0.1-35.2,6.9-45.4c6.5-9.8,17-5.2,17.5-5l0.7-1.5c-0.1-0.1-12.3-5.4-19.6,5.6
					c-7.1,10.6-7.2,44.9-7.2,46.3L419.4,350.9z"/>
			</g>
			<path class="st1" d="M407.4,314.7c0,0,6.2,2.3,4.3,7.7c-1.8,5.4-21.4,14.2-21.4,14.2s-8.2-7.5-0.7-19.7
				C397.2,304.7,407.2,310.9,407.4,314.7z"/>
			<path class="st1" d="M426.6,303.7c0,0-4.4-0.5-4-3.1c0.4-2.7,17.1-9.5,26.9,1.6c0,0-6.3,10.8-15.4,11
				C424.9,313.2,426.6,303.7,426.6,303.7z"/>
			<path class="st1" d="M431.1,321.5c0,0-3-2.4,0.2-3.6c3.3-1.2,19.3-0.9,19.5,15c0,0-18.7,3.1-21-2.9
				C427.5,323.9,431.1,321.5,431.1,321.5z"/>
			<polygon class="st0" points="404.1,382.6 433,382.6 436.2,350.9 400.9,350.9 			"/>
			
				<rect x="399.4" y="347.4" transform="matrix(-1 -1.224647e-16 1.224647e-16 -1 837.0991 701.7705)" class="st1" width="38.3" height="7"/>
		</g>
		<g>
			<path class="st0" d="M137.4,281.8c0,0-3.6-7.9,0.5-15.6c4.1-7.8,5.3-9.6,2.7-11.2c-2.6-1.6-3.8,6.2-3.8,6.2s-2.2-5.4-0.4-11
				c1.8-5.6,3-14.7,0.5-15.7c-2.5-1-0.5,11.4-2.6,15.6c0,0-1.8-4.7-2.1-9.2c-0.3-4.5,0.2-11.7-1.8-13.5c-2-1.8-3.2-0.6-1.3,9.4
				c1.9,9.9,1.9,18,1.9,18s-4.3-13-7.1-13.4c-2.9-0.4-2.9,3.8-0.4,7.5c2.5,3.7,7.2,10.2,8,13.6c0,0-4.7-9.8-8.9-6.8
				c-4.2,3,3.7,8.9,7.2,11.1c3.5,2.1,6,15.6,6,15.6L137.4,281.8z"/>
			<path class="st2" d="M134.6,285c0,0,3.5-7.9-0.7-15.6c-4.2-7.7-5.4-9.5-2.8-11.1c2.6-1.6,3.9,6.1,3.9,6.1s2.1-5.4,0.3-11
				c-1.9-5.6-3.2-14.7-0.7-15.7c2.5-1,0.6,11.4,2.8,15.6c0,0,1.8-4.7,2-9.2c0.2-4.5-0.3-11.7,1.6-13.6c1.9-1.9,3.2-0.6,1.4,9.4
				c-1.8,10-1.7,18.1-1.7,18.1s4.1-13.1,7-13.5c2.9-0.4,2.9,3.8,0.5,7.5c-2.4,3.7-7.1,10.3-7.8,13.7c0,0,4.6-9.9,8.8-6.9
				c4.3,2.9-3.6,9-7.1,11.2c-3.5,2.2-5.8,15.7-5.8,15.7L134.6,285z"/>
			<g>
				<polygon class="st1" points="150.8,279.3 121.8,279.3 124.1,300.1 148.4,300.1 				"/>
			</g>
		</g>
		<g>
			<polygon class="st1" points="50,299.6 50,382.6 56,382.6 56,311.6 151,311.6 151,382.6 158,382.6 158,299.6 			"/>
			<polygon class="st0" points="105,299.6 105,382.6 111,382.6 111,311.6 206,311.6 206,382.6 213,382.6 213,299.6 			"/>
		</g>
		<g>
			<g>
				<path class="st1" d="M232.9,349.9l-3-0.4c0.5-3.7,3.7-10.8,11.7-10.8c9.5,0,14.2,5.5,14.7,10.9l-3,0.3
					c-0.4-4.1-4.1-8.2-11.7-8.2C234.2,341.6,233,349.5,232.9,349.9z"/>
			</g>
			<path class="st0" d="M268,382.1h-48.7c-2.7,0-4.8-2.2-4.8-4.8V352c0-2.7,2.2-4.8,4.8-4.8H268c2.7,0,4.8,2.2,4.8,4.8v25.2
				C272.9,379.9,270.7,382.1,268,382.1z"/>
			<g>
				<path class="st1" d="M256.3,382.6c-41.2,0-43.3-28.3-43.3-28.6l1.7-3.3c0.1,1.1,3.3,28.9,41.6,28.9c15.8,0,29.4,0,30.8-3
					c1.2-2.7-4.7-9.5-14.2-20.4V352c12.1,13.9,18.9,21.4,16.9,25.8C287.7,382.4,278.6,382.6,256.3,382.6z"/>
			</g>
		</g>
		<g>
			<path class="st2" d="M52.1,72.7v29.6c0,1.7,1.3,2.8,3,2.8h99.8c0,0,11.5-5.4,10.7-12.9c-0.7-6-1.3-10.9-1.9-14.6
				c-0.7-4.5-4.6-7.8-9.1-7.8H55.1C53.5,69.7,52.1,71.1,52.1,72.7z"/>
			<path class="st3" d="M52.1,72.7v29.6c0,1.7,1.3,2.8,3,2.8h8.8c0,0,11.5-5.4,10.7-12.9c-0.7-6-1.3-10.9-1.9-14.6
				c-0.7-4.5-4.6-7.8-9.1-7.8h-8.5C53.5,69.7,52.1,71.1,52.1,72.7z"/>
			<path class="st1" d="M163.4,94.5H76.2c0,0-2.9,6.4-7.8,9h85.2C153.6,103.6,162.6,99.4,163.4,94.5z"/>
			<polygon class="st0" points="157.3,100.5 73.2,100.5 74.4,103.6 157.3,103.6 			"/>
			<polygon class="st0" points="160.3,96.8 76.2,96.8 77.4,99.8 160.3,99.8 			"/>
			
				<rect x="79.2" y="92.3" transform="matrix(-1 -1.224647e-16 1.224647e-16 -1 160.4619 185.4365)" class="st1" width="2.1" height="0.9"/>
			
				<rect x="82.2" y="92.3" transform="matrix(-1 -1.224647e-16 1.224647e-16 -1 166.4795 185.4365)" class="st1" width="2.1" height="0.9"/>
		</g>
	</g>
</g>
<g id="Background_Simple" class="st4">
	<g class="st5">
		<path class="st6" d="M104.6,101.6c27.9-59.4,127.1-51.1,165.3-9.3c38.3,41.8,50.7,68.6,85.2,53c34.5-15.6,78.5-11.4,81,38.2
			S398.2,291.8,334,309.1c-64.2,17.4-64.2,78.8-149.1,66.4c-46.3-6.8-47.4-56.9-40.8-98.3C150.6,235.8,72.2,170.6,104.6,101.6z"/>
		<path class="st7" d="M104.6,101.6c27.9-59.4,127.1-51.1,165.3-9.3c38.3,41.8,50.7,68.6,85.2,53c34.5-15.6,78.5-11.4,81,38.2
			S398.2,291.8,334,309.1c-64.2,17.4-64.2,78.8-149.1,66.4c-46.3-6.8-47.4-56.9-40.8-98.3C150.6,235.8,72.2,170.6,104.6,101.6z"/>
	</g>
</g>
<g id="Shadow_1_">
	<ellipse id="_x3C_Path_x3E__359_" class="st2" cx="250" cy="416.2" rx="193.9" ry="11.3"/>
</g>
<g id="Screen">
	<g>
		<path class="st6" d="M423.6,146.8v167.4c0,3.9-3.2,7.1-7,7.1h-237c-3.9,0-7.1-3.2-7.1-7.1V146.8c0-3.9,3.2-7.1,7.1-7.1h237
			C420.4,139.7,423.6,142.9,423.6,146.8z"/>
		<path class="st8" d="M423.6,146.8v167.4c0,3.9-3.2,7.1-7,7.1h-237c-3.9,0-7.1-3.2-7.1-7.1V146.8c0-3.9,3.2-7.1,7.1-7.1h237
			C420.4,139.7,423.6,142.9,423.6,146.8z"/>
		<path class="st9" d="M423.6,146.8v13H172.5v-13c0-3.9,3.2-7.1,7.1-7.1h237C420.4,139.7,423.6,142.9,423.6,146.8z"/>
		<g>
			<circle class="st10" cx="411.5" cy="150.5" r="3.7"/>
			<circle class="st10" cx="398" cy="150.5" r="3.7"/>
			<circle class="st10" cx="384.5" cy="150.5" r="3.7"/>
		</g>
		<rect x="177" y="168.4" class="st11" width="242" height="13.7"/>
		<rect x="177.1" y="186.4" class="st11" width="241.9" height="118.7"/>
	</g>
</g>
<g id="Images">
	<g>
		<g>
			
				<rect x="370.2" y="86.8" transform="matrix(-1 -1.224647e-16 1.224647e-16 -1 791.8213 215.9995)" class="st12" width="51.4" height="42.4"/>
			<path class="st13" d="M370.2,86.8v42.4h51.4V86.8H370.2z M371.9,88.5h48v39.1h-48V88.5z"/>
			
				<rect x="370.2" y="86.8" transform="matrix(-1 -1.224647e-16 1.224647e-16 -1 791.8213 215.9995)" class="st11" width="51.4" height="42.4"/>
			<polygon class="st14" points="419.9,116 405.2,105.3 394.3,116 383.3,109.7 371.9,116.7 371.9,127.5 419.9,127.5 			"/>
			<circle class="st13" cx="388.8" cy="98.1" r="3.5"/>
		</g>
		<g>
			<rect x="294.6" y="291.7" class="st12" width="62.1" height="51.3"/>
			<path class="st13" d="M294.6,291.7V343h62.1v-51.3H294.6z M354.7,341h-58.1v-47.3h58.1V341z"/>
			<polygon class="st15" points="296.7,321.5 308.5,309.6 318.4,320.7 324.7,317.3 330.1,322.9 334.4,320.7 339.8,325.6 
				354.7,325.6 354.7,341 296.7,341 			"/>
			<path class="st13" d="M335.7,301.3c0.2,0.5,0.3,1,0.3,1.5c0,2.3-1.9,4.3-4.3,4.3c-0.5,0-0.9-0.1-1.3-0.2c0.6,1.6,2.2,2.7,4,2.7
				c2.3,0,4.3-1.9,4.3-4.3C338.6,303.5,337.4,301.9,335.7,301.3z"/>
			<path class="st15" d="M335.4,341h-38.7v-19.4l11.8-11.9l9.9,11.1l6.4-3.4l5.4,5.6l4.3-2.2l5.4,4.9c0,0-17.7,3-17.5,8.3
				C322.4,339.2,335.4,341,335.4,341z"/>
		</g>
		<g>
			<rect x="321.4" y="188.1" class="st12" width="83" height="68.6"/>
			<path class="st13" d="M321.4,188.1v68.6h83v-68.6H321.4z M401.7,254h-77.6v-63.2h77.6V254z"/>
			<polygon class="st15" points="324.1,225.4 338.5,214.1 356.5,227.9 379.4,209.5 401.7,226 401.7,254 324.1,254 			"/>
			<rect x="324.1" y="236.1" class="st15" width="77.6" height="17.9"/>
			<polygon class="st15" points="357.9,236.1 373.4,254 387.8,254 			"/>
			<circle class="st13" cx="355.3" cy="208.6" r="4.4"/>
		</g>
		<g>
			
				<rect x="157.3" y="171.9" transform="matrix(-1 -1.224647e-16 1.224647e-16 -1 368.5679 388.3125)" class="st12" width="53.9" height="44.5"/>
			<path class="st13" d="M157.3,171.9v44.5h53.9v-44.5H157.3z M159.1,173.6h50.4v41h-50.4V173.6z"/>
			
				<rect x="157.3" y="171.9" transform="matrix(-1 -1.224647e-16 1.224647e-16 -1 368.5679 388.3125)" class="st11" width="53.9" height="44.5"/>
			<polygon class="st15" points="209.5,196.1 200.2,188.8 188.5,197.7 173.6,185.8 159.1,196.5 159.1,214.7 209.5,214.7 			"/>
			<rect x="159.1" y="203" class="st15" width="50.4" height="11.6"/>
			<polygon class="st15" points="187.6,203 177.5,214.7 168.1,214.7 			"/>
			<circle class="st13" cx="189.2" cy="185.2" r="2.9"/>
		</g>
		<g>
			<rect x="218.4" y="98.1" class="st12" width="122.6" height="101.3"/>
			<path class="st13" d="M218.4,98.1v101.3h122.6V98.1H218.4z M337.1,195.4H222.4v-93.3h114.6V195.4z"/>
			<polygon class="st14" points="222.4,167.7 257.6,142.2 283.7,167.7 309.8,152.8 337.1,169.6 337.1,195.4 222.4,195.4 			"/>
			<circle class="st13" cx="296.9" cy="125.1" r="8.4"/>
		</g>
	</g>
</g>
<g id="Button">
	<g>
		<path class="st12" d="M196,293.4c-10.8,0-19.5-8.8-19.5-19.5c0-10.8,8.8-19.5,19.5-19.5h67c10.8,0,19.5,8.8,19.5,19.5
			c0,10.8-8.8,19.5-19.5,19.5H196z"/>
		<path class="st13" d="M196,293.4c-10.8,0-19.5-8.8-19.5-19.5c0-10.8,8.8-19.5,19.5-19.5h67c10.8,0,19.5,8.8,19.5,19.5
			c0,10.8-8.8,19.5-19.5,19.5H196z"/>
		<path class="st12" d="M196,291.4c-9.7,0-17.5-7.9-17.5-17.5c0-9.7,7.9-17.5,17.5-17.5h67c9.7,0,17.5,7.9,17.5,17.5
			c0,9.7-7.9,17.5-17.5,17.5H196z"/>
		<path class="st11" d="M196,291.4c-9.7,0-17.5-7.9-17.5-17.5c0-9.7,7.9-17.5,17.5-17.5h67c9.7,0,17.5,7.9,17.5,17.5
			c0,9.7-7.9,17.5-17.5,17.5H196z"/>
		<path class="st12" d="M263,258.3h-67c-8.6,0-15.5,7-15.5,15.5v0c0,8.6,7,15.5,15.5,15.5h67c8.6,0,15.5-7,15.5-15.5v0
			C278.5,265.3,271.6,258.3,263,258.3z"/>
	</g>
</g>
<g id="Character">
	<g>
		<path class="st16" d="M164.7,291.6l6-4.7c0,0,0.3-2.7,1.6-3.4s6.7-2.9,7.9-2.8c1.3,0.1,1.7,5.1,1.3,5.9c-0.4,0.8-8.2,3.1-8.2,3.1
			l-7.2,7.1L164.7,291.6z"/>
		<g>
			<path class="st12" d="M119.9,308.2c9-2.2,23.1-4.7,28.6-7.5c5.5-2.8,14.4-9.5,16.1-9.9c0,0,3.3,2.3,4.4,4.2
				c0,0-7.8,10.2-19.3,15.6c-11.4,5.4-26.6,9.7-26.6,9.7L119.9,308.2z"/>
			<path class="st17" d="M168.9,295c0,0-7.8,10.2-19.3,15.6c-3.9,1.8-8.2,3.5-12.2,5c-7.8,2.8-14.4,4.7-14.4,4.7l-1.7-6.4l-1.5-5.7
				c9-2.2,23.1-4.7,28.6-7.5c5.5-2.8,14.4-9.5,16.1-9.9C164.6,290.8,167.9,293.1,168.9,295z"/>
		</g>
		<polygon class="st12" points="164.6,290.8 167.1,288.8 171.3,292.4 168.9,295 		"/>
		<path class="st18" d="M137.5,315.6c-7.8,2.8-14.4,4.7-14.4,4.7l-1.7-6.4C121.4,313.9,130.1,313.5,137.5,315.6z"/>
		<g>
			<path class="st19" d="M122.6,363.3l4.8,14.6c14.8-3.5,53.4-10.7,59.2,5.6c7.3,20.3-45.2,36.4-74.2,37.4c-29,1-44.3-15.1-26-57.4
				L122.6,363.3z"/>
			<path class="st18" d="M122.6,363.3l4.8,14.6c14.8-3.5,53.4-10.7,59.2,5.6c7.3,20.3-45.2,36.4-74.2,37.4c-29,1-44.3-15.1-26-57.4
				L122.6,363.3z"/>
		</g>
		<path class="st19" d="M178.2,412.2c-0.1,0-0.2,0-0.2,0c-0.1,0-0.1-0.1-0.1-0.2c0.1-0.3,1.1-3.1,2-3.4c0.2-0.1,0.4,0,0.6,0.2
			c0.3,0.2,0.4,0.6,0.3,0.9c-0.2,0.5-0.5,1-0.9,1.3C179.4,411.5,178.8,411.9,178.2,412.2z M178.5,411.7c0.9-0.4,1.6-1.1,2.1-2
			c0.1-0.2,0-0.5-0.2-0.6c-0.1-0.1-0.1-0.1-0.2-0.1c-0.1,0-0.2,0.1-0.2,0.1C179.2,409.9,178.8,410.7,178.5,411.7z"/>
		<path class="st19" d="M178.2,412.2c-0.1,0-0.1,0-0.2-0.1c-0.1-0.1-1.4-1.8-1.2-2.9c0.1-0.3,0.2-0.5,0.5-0.7
			c0.2-0.2,0.5-0.2,0.8-0.1c0.7,0.5,0.6,2.8,0.3,3.6L178.2,412.2C178.2,412.2,178.2,412.2,178.2,412.2z M177.4,408.9
			c-0.1,0.1-0.2,0.2-0.2,0.4c-0.1,0.7,0.5,1.8,0.9,2.3c0.2-1,0.1-2.6-0.3-2.8C177.8,408.8,177.7,408.7,177.4,408.9L177.4,408.9
			L177.4,408.9z"/>
		<path class="st19" d="M127.2,416.9c0-0.1,0.1-0.1,0.2-0.1c0.1,0,0.1,0.1,0.1,0.1c0.1,0.3,0.6,3.2-0.1,4c-0.2,0.1-0.4,0.2-0.6,0.1
			c-0.4-0.1-0.6-0.3-0.8-0.7c-0.1-0.5-0.1-1.1,0.2-1.6C126.5,418.2,126.8,417.5,127.2,416.9z M127.3,417.5c-0.6,0.8-0.9,1.8-0.8,2.7
			c0.1,0.2,0.3,0.4,0.5,0.4c0.1,0,0.2,0,0.2-0.1c0.1-0.1,0.1-0.1,0.1-0.2C127.5,419.5,127.4,418.5,127.3,417.5z"/>
		<polygon class="st20" points="146.2,402.3 134.3,406.5 128.5,408.6 130,414.8 135.6,413.7 149.1,410.8 		"/>
		<path class="st12" d="M131.6,415.1l-1-7.4c-0.1-0.4-0.4-0.7-0.9-0.6l-3.7,0.6c0,0-5,0.5-6,1.7c-2.9,3.7-1.1,20.2,0.8,20.7
			c0.7,0.2,1.4-0.8,1.8-1.4c1-2.1,2.7-7.7,3.5-9.4c1-2.1,3.6-3.1,4.8-3.4C131.4,415.8,131.6,415.5,131.6,415.1z"/>
		<path class="st19" d="M127.2,416.9c0-0.1,0.1-0.1,0.2,0c0.1,0,2.1,0.9,2.5,2c0.1,0.3,0.1,0.6-0.1,0.8c-0.1,0.3-0.4,0.5-0.6,0.4
			c-0.9-0.1-1.9-2.1-2-3L127.2,416.9C127.2,416.9,127.2,416.9,127.2,416.9z M129.5,419.4c0.1-0.2,0.1-0.3,0-0.5
			c-0.2-0.7-1.3-1.3-1.9-1.6c0.3,1,1.1,2.3,1.6,2.4C129.3,419.7,129.4,419.7,129.5,419.4L129.5,419.4L129.5,419.4z"/>
		<polygon class="st18" points="146.2,402.3 134.3,406.5 135.6,413.7 149.1,410.8 		"/>
		<g>
			<polygon class="st12" points="137.7,414.7 141.1,415 138.8,403.2 134.9,405.3 			"/>
			<polygon class="st13" points="137.7,414.7 141.1,415 138.8,403.2 134.9,405.3 			"/>
		</g>
		<path class="st18" d="M87.9,368.8l17.9,19.8c0,0,19.8-0.4,43.8,11.3c0,0,25.8-10.6,28.1-19.5c2.4-8.8-54.1-2.6-54.1-2.6
			L87.9,368.8z"/>
		<g>
			<path class="st12" d="M84.2,320.3c3.2,9.6,3.3,31.2,2.2,43.2l36.2-0.2c6.2-23.9,4.1-40.6,3.6-46.2c-0.7-6.8-1.7-7.1-1.7-7.1
				s-7.4-0.7-13.8-0.7c-5,0.2-9.9,0.7-14.8,1.6c-3.6,0.6-7.2,1.4-10.8,2.4c-1.6,0.5-2.5,2.1-1.9,3.7
				C83.5,318.2,83.9,319.3,84.2,320.3z"/>
			<path class="st13" d="M122.6,363.3l-21.8,0.1l-14.4,0.1c0.8-8.8,1-22.8-0.3-33.5c-0.4-3.8-1.1-7.2-1.9-9.7
				c-0.3-1.1-0.7-2.2-1.1-3.3c-0.5-1.6,0.4-3.2,1.9-3.7c3.5-1,7.1-1.8,10.8-2.4c4.9-0.9,9.8-1.4,14.8-1.6c6.4,0,13.8,0.7,13.8,0.7
				s1,0.3,1.7,7.1C126.7,322.7,128.8,339.5,122.6,363.3z"/>
			<g>
				<path class="st12" d="M111.8,328.4c15-4.7,15.3,21.9-0.3,25.6C96,357.7,97.6,332.9,111.8,328.4z"/>
				<path class="st12" d="M120.3,329.9c2.7-0.1-9.8,21.6-21.3,23.5c0,0,8.1,1.2,17.7-9.6c9.6-10.9,8.6-14.2,7.9-15
					C123.7,327.9,120.3,329.9,120.3,329.9z"/>
				<polygon class="st12" points="107,334.8 108.2,335.8 109.8,335.4 109.1,336.9 110,338.2 108.4,338.1 107.4,339.3 107.1,337.8 
					105.6,337.2 106.9,336.4 				"/>
			</g>
			<path class="st18" d="M86.4,363.5c0.8-8.8,1-22.8-0.3-33.5c4.5,6.3,12.3,19.1,14.6,33.4L86.4,363.5z"/>
		</g>
		<path class="st16" d="M110,376.5c0,0,9,5.9,10.1,6.3c1,0.5,7.7,2.1,9.6,2c1.9-0.1-0.6-6.1-2.3-6.9c-1.6-0.8-7.6,0.3-7.6,0.3
			l-7-5.3L110,376.5z"/>
		<g>
			<path class="st19" d="M171.7,382.8v2.9c0,0.8-0.9,1.1-1.6,1.1h-58.7c-0.8,0-1.7-0.3-1.7-1.1v-2.9H171.7z"/>
			<path class="st11" d="M171.7,382.8v2.9c0,0.8-0.9,1.1-1.6,1.1h-58.7c-0.8,0-1.7-0.3-1.7-1.1v-2.9H171.7z"/>
			<path class="st18" d="M171.7,382.8v2.9c0,0.8-0.9,1.1-1.6,1.1h-38.7c-0.8,0-1.6-0.3-1.6-1.1v-2.9H171.7z"/>
			<path class="st19" d="M181.6,352.3l-7,31.7c-0.2,1-1.2,1.8-2.3,1.8h-38.2c-1,0-1.7-0.9-1.4-2l7-31.5c0.2-1,1.2-1.6,2.3-1.6h38.2
				C181.1,350.8,181.8,351.3,181.6,352.3z"/>
			<path class="st11" d="M181.6,352.3l-7,31.7c-0.2,1-1.2,1.8-2.3,1.8h-36.9c-1,0-1.7-0.9-1.4-2l7-31.5c0.2-1,1.2-1.6,2.3-1.6h36.9
				C181.1,350.8,181.8,351.3,181.6,352.3z"/>
			<path class="st18" d="M162.7,368.4L162.7,368.4c0,2.7-2.9,4.9-5,4.9c-2.1,0-3.4-2.2-2.8-4.9c0.6-2.7,2.7-4.8,4.8-4.9
				c-0.6,2.7,0.7,4.9,2.8,4.9C162.6,368.5,162.7,368.5,162.7,368.4z"/>
		</g>
		<polygon class="st20" points="154.5,415.8 167,417.9 173,418.9 174.7,412.7 169.3,411 156.1,407 		"/>
		<path class="st12" d="M173.5,411.7l-2.7,7c-0.2,0.4,0,0.8,0.4,1l3.5,1.2c0,0,4.6,2,6.1,1.4c4.3-1.9,10.7-17.1,9.3-18.5
			c-0.5-0.5-1.6,0-2.2,0.4c-1.9,1.4-6.1,5.4-7.6,6.5c-1.8,1.3-4.7,0.9-5.9,0.6C174,411.1,173.7,411.3,173.5,411.7z"/>
		<polygon class="st18" points="154.5,415.8 167,417.9 169.3,411 156.1,407 		"/>
		<path class="st19" d="M167.2,409.7c0,0-51-28.7-68.6-27.8c-17.6,0.8-20.1,16.3-12.9,26c7.3,9.7,20.7,12.1,20.7,12.1
			s-9.1-12.9-7.8-16.5c1.3-3.6,6.5,1.4,6.5,1.4s32.1,10.4,60.1,12.7L167.2,409.7z"/>
		<g>
			<polygon class="st21" points="168,409 165.1,407 161.4,418.4 165.8,418.4 			"/>
			<polygon class="st22" points="168,409 165.1,407 161.4,418.4 165.8,418.4 			"/>
		</g>
		<path class="st16" d="M92.7,312.3c-1.8,2.6,20.8,6.9,20.8,6.9s13.2-8.6-2.2-9.9C108.1,308.9,95.6,308.1,92.7,312.3z"/>
		<path class="st12" d="M114.2,324c0,0,12.2-10.1,5.9-16.1c-6.3-6-36-8.7-33.5,5c0,0,3.8-1.1,7.7,2.6
			C102.4,323.2,114.2,324,114.2,324z"/>
		<path class="st18" d="M113.2,321.1c0,0,6.9-5.4,4.5-10.2c-2.4-4.8-16.8-10.1-27.1-3.5c0,0,2.7,1.2,6.8,4.7
			S113.2,321.1,113.2,321.1z"/>
		<path class="st16" d="M97.4,312.2c0,0,3.3,4.7,15.8,8.9c0,0,5.6-7.1-2.9-10.3c0,0-1.8-0.5-2.1-3.4c-0.2-1.3-0.1-3.2,0.8-5.8
			c0.1-0.3,0.2-0.6,0.3-0.9l-10.3-6.4C98.9,294.3,102.5,307.3,97.4,312.2z"/>
		<path class="st18" d="M101.2,298c0,0,0.5,7.3,6.9,9.5c-0.2-1.3-0.1-3.2,0.8-5.8C105.1,299.7,101.2,298,101.2,298z"/>
		<g>
			<path class="st23" d="M100.5,299.2c0,0-8.2,3.3-11.1-0.6"/>
			<path class="st23" d="M114.7,277.2c0,0,3.5-4.3-0.5-8.5c-4-4.3-9.8-0.6-9.8-0.6"/>
			<path class="st23" d="M114.3,277.5c0,0,5.5-3.7,1.7-7.8"/>
			<path class="st19" d="M114.4,276.5c0,0,1.3-8.6-7.9-11.4c-9.2-2.8-18.6,6.3-18.6,6.3s-7.1,29.4,12.6,27.8
				C120.2,297.6,114.4,276.5,114.4,276.5z"/>
			<path class="st16" d="M103.9,273.4c8.5-0.8,11.6,3.5,13.1,12.2c1.8,10.9,0.1,18.9-10.7,17.5C91.6,301.3,89.9,274.7,103.9,273.4z"
				/>
			<path class="st24" d="M111.5,285.6c0,0,1.4,2.1,2.8,3.3c0,0-0.6,1.2-2.1,1.2L111.5,285.6z"/>
			<g>
				
					<ellipse transform="matrix(0.9932 -0.1167 0.1167 0.9932 -32.5869 14.2456)" class="st19" cx="105.4" cy="285.5" rx="0.8" ry="1.3"/>
				<path class="st19" d="M105.1,284.3l1.4-0.8C106.5,283.5,105.9,284.9,105.1,284.3z"/>
			</g>
			<g>
				
					<ellipse transform="matrix(0.9932 -0.1167 0.1167 0.9932 -32.3946 15.2456)" class="st19" cx="114" cy="284.3" rx="0.8" ry="1.3"/>
				<path class="st19" d="M113.7,283.1l1.4-0.8C115.1,282.4,114.5,283.7,113.7,283.1z"/>
			</g>
			<path class="st25" d="M105.6,279.6c0,0-2.4-0.1-3.6,1.6"/>
			<path class="st25" d="M111.7,278.6c0,0,1.4-0.7,3.4,0.4"/>
			<path class="st19" d="M96,288.6c0,0,3.3-7.3,2.2-12.7c0,0,16.2-8.4,18.6,8.5c0,0,0.2-15.3-14.4-14.3c-14.6,1-12.6,22.4-4.4,28
				C98,298.2,94,293.2,96,288.6z"/>
			<path class="st16" d="M97.6,290.2c-0.2-1.4-1.8-3.5-4.3-3c-2.6,0.5-3.4,6,3.3,6.7C97.5,294,98,293.1,97.6,290.2z"/>
			<g>
				<path class="st19" d="M113.5,293.3c-0.5,1-0.9,2.9-0.9,2.9c-0.2,0-0.4,0-0.5,0c-2.4-0.2-3.5-1.1-3.9-2c-0.2-0.5-0.3-1-0.3-1.5
					c0-0.5,0.1-0.8,0.1-0.8c1.2,0.9,3.5,1.2,4.7,1.4C113.1,293.3,113.5,293.3,113.5,293.3z"/>
				<path class="st26" d="M112.6,293.3l-0.3,0.8c-2.3-0.2-3.9-0.7-4.5-1.4c0-0.5,0.1-0.8,0.1-0.8
					C109.2,292.7,111.4,293.1,112.6,293.3z"/>
				<path class="st24" d="M112,296.2c-2.4-0.2-3.5-1.1-3.9-2c0.8,0.1,1.8,0.3,2.6,0.8C111.4,295.3,111.8,295.7,112,296.2z"/>
			</g>
			<path class="st19" d="M91.7,270.1c0,0,4.1-6.5-2.8-9.1c-6.9-2.6-13.6,6.3-9.5,12.5c4.2,6.2,10.8,3.9,10.8,3.9L91.7,270.1z"/>
			<path class="st23" d="M92.1,269.2c0,0,4.4-5.3,0.5-8.6"/>
			<path class="st23" d="M87.9,277.2c0,0-1.8,3.3-6.6,0.7c-4.8-2.6-4.5-10.8,0-11.3"/>
		</g>
		<g>
			<circle class="st18" cx="109.9" cy="321.8" r="0.7"/>
			<circle class="st18" cx="116.8" cy="319.8" r="0.7"/>
			<circle class="st19" cx="123.2" cy="326.7" r="0.7"/>
			<circle class="st19" cx="108.3" cy="330.2" r="0.7"/>
			<path class="st23" d="M116.8,320c0,0,2.9-0.1,3.3,3.2c0.4,3.3,2.9,3.6,2.9,3.6"/>
			<path class="st23" d="M110,321.8c0,0,1.9,1.8,0,3.7c-1.9,1.9-1.7,4.5-1.7,4.5"/>
		</g>
		<path class="st12" d="M83.5,314.5c7.2-5.8,4.5,26.7,7.8,34c3.4,7.4,23.5,24.8,23.5,24.8l-4.3,4.9c0,0-24.6-13.6-28.1-22.7
			C78.1,344,78.2,318.7,83.5,314.5z"/>
		<path class="st17" d="M83.5,314.5c7.2-5.8,4.5,26.7,7.8,34c3.4,7.4,23.5,24.8,23.5,24.8l-4.3,4.9c0,0-24.6-13.6-28.1-22.7
			C78.1,344,78.2,318.7,83.5,314.5z"/>
		<polygon class="st12" points="114.9,373.4 117.7,375.7 113.9,380.3 110.6,378.2 		"/>
	</g>
</g>
</svg>
