<?xml version="1.0" encoding="utf-8"?>
<!-- Generator: Adobe Illustrator 21.0.0, SVG Export Plug-In . SVG Version: 6.00 Build 0)  -->
<svg version="1.1" xmlns="http://www.w3.org/2000/svg" xmlns:xlink="http://www.w3.org/1999/xlink" x="0px" y="0px"
	 viewBox="0 0 500 500" style="enable-background:new 0 0 500 500;" xml:space="preserve">
<style type="text/css">
	.st0{fill:#E6E6E6;}
	.st1{opacity:0.8;fill:#E6E6E6;}
	.st2{opacity:0.1;}
	.st3{fill:#B64FC8;}
	.st4{opacity:0.1;fill:#B64FC8;}
	.st5{fill:#FFFFFF;}
	.st6{opacity:0.15;}
	.st7{opacity:0.45;fill:#FFFFFF;}
	.st8{opacity:0.2;}
	.st9{fill:#455A64;}
	.st10{fill:#F5F5F5;}
	.st11{opacity:0.5;}
	.st12{opacity:0.6;fill:#FFFFFF;}
	.st13{opacity:0.5;fill:#FFFFFF;}
	.st14{opacity:0.1;fill:#263238;}
	.st15{fill:#F0F0F0;}
	.st16{fill:#FAFAFA;}
	.st17{fill:#27DEBF;}
	.st18{fill:#E0E0E0;}
	.st19{opacity:0.3;}
	.st20{fill:#EBEBEB;}
	.st21{fill:#263238;}
	.st22{opacity:0.8;fill:#FFFFFF;}
	.st23{opacity:0.15;fill:#B64FC8;}
	.st24{fill:#37474F;}
	.st25{opacity:0.5;fill:#B64FC8;}
	.st26{opacity:0.23;fill:#B64FC8;}
	.st27{opacity:0.4;fill:#B64FC8;}
	.st28{opacity:0.2;fill:#B64FC8;}
	.st29{opacity:0.38;fill:#B64FC8;}
	.st30{opacity:0.7;fill:#B64FC8;}
	.st31{opacity:0.3;fill:#B64FC8;}
	.st32{opacity:0.45;fill:#B64FC8;}
	.st33{opacity:0.7;}
	.st34{fill:#FFA8A7;}
	.st35{fill:#F28F8F;}
	.st36{opacity:0.4;fill:#FFFFFF;}
</style>
<g id="Floor">
	<g id="Floor_1_">
		<path id="Floor_16_" class="st0" d="M224.5,208.7c40.7,23,40.7,60.2,0,83.2c-40.7,23-106.6,23-147.3,0c-40.7-23-40.7-60.2,0-83.2
			C117.9,185.7,183.8,185.7,224.5,208.7z"/>
		<path id="Floor_3_" class="st1" d="M224.5,208.7c40.7,23,40.7,60.2,0,83.2c-40.7,23-106.6,23-147.3,0c-40.7-23-40.7-60.2,0-83.2
			C117.9,185.7,183.8,185.7,224.5,208.7z"/>
	</g>
</g>
<g id="Shadows">
	<path id="Shadow_8_" class="st2" d="M160,244.5l19.7-11.4c0.2-0.1,0.6-0.1,0.9,0l28.8,16.7c0.2,0.1,0.2,0.4,0,0.5l-19.7,11.4
		c-0.2,0.1-0.6,0.1-0.9,0L160,245C159.8,244.8,159.8,244.6,160,244.5z"/>
	<g id="Shadows_2_" class="st2">
		<path id="Shadow_6_" d="M69.9,264.9l-8.3-4.8c-0.5-0.3-0.5-0.7,0-1l100.3-57.9c0.5-0.3,1.3-0.3,1.8,0l8.3,4.8c0.5,0.3,0.5,0.7,0,1
			L71.6,264.9C71.1,265.2,70.3,265.2,69.9,264.9z"/>
		<path id="Shadow_5_" d="M155.5,200.2l17.8-10.3c0.4-0.2,1-0.2,1.4,0l21.8,12.6c0.4,0.2,0.4,0.6,0,0.8l-17.8,10.3
			c-0.4,0.2-1,0.2-1.4,0l-21.8-12.6C155.2,200.8,155.2,200.5,155.5,200.2z"/>
	</g>
	<path id="Shadow_4_" class="st2" d="M111.7,285.9l22.4-13c0.5-0.3,1.3-0.3,1.7,0l26.5,15.3c0.5,0.3,0.5,0.7,0,1l-22.4,13
		c-0.5,0.3-1.3,0.3-1.7,0l-26.5-15.3C111.3,286.7,111.3,286.2,111.7,285.9z"/>
	<path id="Shadow_3_" class="st2" d="M83.3,279.4l-4.9-2.8c-0.5-0.3-0.5-0.7,0-1l30-17.3c0.5-0.3,1.3-0.3,1.8,0l4.9,2.8
		c0.5,0.3,0.5,0.7,0,1l-30,17.3C84.6,279.7,83.8,279.7,83.3,279.4z"/>
	<path id="Shadow_2_" class="st2" d="M121.7,257.5l-4.9-2.8c-0.5-0.3-0.5-0.7,0-1l32.7-18.9c0.5-0.3,1.3-0.3,1.8,0l4.9,2.8
		c0.5,0.3,0.5,0.7,0,1l-32.7,18.9C122.9,257.8,122.1,257.8,121.7,257.5z"/>
	<path id="Shadow_1_" class="st2" d="M216.5,269.4c-2.4,0-4.9-0.3-7.1-1.4c-0.7-0.3-1.4-0.9-1.3-1.7c0.1-0.7,0.8-1.1,1.5-1.3
		c1.4-0.4,2.8-0.2,4.2-0.4c2.2-0.3,4.3-1.3,6.4-2c0.4-0.1,0.9-0.2,1.3-0.3c1.7-0.4,3.4-0.5,5.1-0.4c0.8,0,1.4,0,2.1,0.2
		c0.9,0.2,1.7,0.4,2.6,0.5c3.4,0.6,7,1,10.4,0.5c0.9-0.2,1.8-0.4,2.7-0.2c0.6,0.1,1.6,0.7,1.6,1.5c0,0.6-0.9,1.3-1.3,1.7
		c-2.7,2.4-6.4,3.2-10,3.3c-3.6,0.1-7.2-0.4-10.7-0.4C221.5,269.1,219.1,269.4,216.5,269.4C216.6,269.4,216.5,269.4,216.5,269.4z"/>
</g>
<g id="Plant">
	<g id="Plants_19_">
		<g id="XMLID_3911_">
			<g id="XMLID_3914_">
				<path id="XMLID_3916_" class="st3" d="M72,248.3c0.3-3.6-1.6-11.3-5-16.3c-3.3-5-8.9-8.9-13.2-7.9c-4,1-4,6.1,0.4,9.9
					c4.4,3.8,11.1,8.7,12.7,14.7l3.7,7.6L72,248.3z"/>
				<path id="XMLID_3915_" class="st4" d="M72,248.3c0.3-3.6-1.6-11.3-5-16.3c-3.3-5-8.9-8.9-13.2-7.9c-4,1-4,6.1,0.4,9.9
					c4.4,3.8,11.1,8.7,12.7,14.7l3.7,7.6L72,248.3z"/>
			</g>
			<g id="XMLID_3912_">
				<path id="XMLID_3913_" class="st5" d="M71.8,253.3c-0.1,0-0.2-0.1-0.2-0.2c-1.3-12.5-10.4-23.4-16.2-26.1
					c-0.1-0.1-0.2-0.2-0.1-0.4c0.1-0.1,0.2-0.2,0.4-0.1c5.9,2.8,15.1,13.8,16.5,26.5C72.1,253.1,72,253.2,71.8,253.3
					C71.8,253.3,71.8,253.3,71.8,253.3z"/>
			</g>
		</g>
		<g id="XMLID_3906_">
			<g id="XMLID_3909_">
				<path id="XMLID_3910_" class="st3" d="M69.3,261c-0.4-2.1-2.6-5.6-6.3-8.8c-4.2-3.4-9.6-5.3-10.7-7.8c-1.3-3,1.3-5.5,5.8-4.5
					c4.5,1,12,7.9,12.4,17.3L69.3,261z"/>
			</g>
			<g id="XMLID_3907_">
				<path id="XMLID_3908_" class="st5" d="M70.3,258.9c-0.1,0-0.2-0.1-0.2-0.2c-2.8-10.9-10.6-15.3-14.2-16.1
					c-0.1,0-0.2-0.2-0.2-0.3c0-0.1,0.2-0.2,0.3-0.2c4.1,0.9,11.7,5.4,14.6,16.5c0,0.1,0,0.3-0.2,0.3
					C70.4,258.9,70.4,258.9,70.3,258.9z"/>
			</g>
		</g>
	</g>
</g>
<g id="Boxes">
	<g id="Box_6_">
		<polygon id="XMLID_313_" class="st3" points="178.1,211.9 178.1,199.4 194.4,190 194.4,202.5 		"/>
		<polygon id="XMLID_312_" class="st3" points="178.1,199.4 157.8,187.6 157.8,200.1 178.1,211.9 		"/>
		<polygon id="XMLID_311_" class="st6" points="178.1,199.4 157.8,187.6 157.8,200.1 178.1,211.9 		"/>
		<polygon id="XMLID_310_" class="st3" points="178.1,199.4 194.9,189.7 174,177.7 157.3,187.4 		"/>
		<polygon id="XMLID_309_" class="st7" points="178.1,199.4 194.9,189.7 174,177.7 157.3,187.4 		"/>
		<polygon id="XMLID_308_" class="st3" points="178.1,199.4 178.1,202.5 194.9,192.8 194.9,189.7 		"/>
		<polygon id="XMLID_307_" class="st8" points="178.1,202.5 194.4,193.1 194.4,193.8 178.1,203.2 		"/>
		<polygon id="XMLID_306_" class="st3" points="157.3,187.4 178.1,199.4 178.1,202.5 157.3,190.5 		"/>
		<polygon id="XMLID_305_" class="st8" points="157.3,187.4 178.1,199.4 178.1,202.5 157.3,190.5 		"/>
		<polygon id="XMLID_304_" class="st8" points="178.1,202.5 157.8,190.8 157.8,191.4 178.1,203.2 		"/>
		<path id="XMLID_303_" class="st9" d="M183.5,201.3l5.6-3.2c0.2-0.1,0.4,0,0.4,0.3v3.3c0,0.3-0.2,0.6-0.4,0.8l-5.6,3.2
			c-0.2,0.1-0.4,0-0.4-0.3V202C183,201.7,183.2,201.4,183.5,201.3z"/>
		<path id="XMLID_302_" class="st10" d="M183.8,201.6l4.8-2.8c0.2-0.1,0.3,0,0.3,0.2v2.5c0,0.2-0.1,0.4-0.3,0.5l-4.8,2.8
			c-0.2,0.1-0.3,0-0.3-0.2l0-2.5C183.5,202,183.7,201.7,183.8,201.6z"/>
		<g class="st11">
			<g>
				<path class="st9" d="M184,202.3C183.9,202.3,183.9,202.3,184,202.3c-0.1-0.1-0.1-0.1,0-0.1l4.6-2.6c0,0,0.1,0,0.1,0
					c0,0,0,0.1,0,0.1L184,202.3C184,202.3,184,202.3,184,202.3z"/>
			</g>
			<g>
				<path class="st9" d="M184,202.9C183.9,202.9,183.9,202.9,184,202.9c-0.1-0.1-0.1-0.1,0-0.1l4.6-2.6c0,0,0.1,0,0.1,0
					c0,0,0,0.1,0,0.1L184,202.9C184,202.9,184,202.9,184,202.9z"/>
			</g>
			<g>
				<path class="st9" d="M184,203.5C183.9,203.5,183.9,203.5,184,203.5c-0.1-0.1-0.1-0.1,0-0.1l4.6-2.6c0,0,0.1,0,0.1,0
					c0,0,0,0.1,0,0.1L184,203.5C184,203.5,184,203.5,184,203.5z"/>
			</g>
			<g>
				<path class="st9" d="M184,204.1C183.9,204.1,183.9,204.1,184,204.1c-0.1-0.1-0.1-0.1,0-0.1l4.6-2.6c0,0,0.1,0,0.1,0
					c0,0,0,0.1,0,0.1L184,204.1C184,204.1,184,204.1,184,204.1z"/>
			</g>
		</g>
	</g>
	<g id="Box_5_">
		<polygon id="XMLID_301_" class="st3" points="178.1,197.8 178.1,185.3 194.4,175.9 194.4,188.4 		"/>
		<polygon id="XMLID_300_" class="st3" points="178.1,185.3 157.8,173.5 157.8,186.1 178.1,197.8 		"/>
		<polygon id="XMLID_299_" class="st6" points="178.1,185.3 157.8,173.5 157.8,186.1 178.1,197.8 		"/>
		<polygon id="XMLID_298_" class="st3" points="178.1,185.3 194.9,175.6 174,163.6 157.3,173.3 		"/>
		<polygon id="XMLID_297_" class="st12" points="178.1,185.3 194.9,175.6 174,163.6 157.3,173.3 		"/>
		<polygon id="XMLID_296_" class="st3" points="178.1,185.3 178.1,188.4 194.9,178.7 194.9,175.6 		"/>
		<polygon id="XMLID_295_" class="st8" points="178.1,188.4 194.4,179 194.4,179.7 178.1,189.1 		"/>
		<polygon id="XMLID_294_" class="st3" points="157.3,173.3 178.1,185.3 178.1,188.4 157.3,176.4 		"/>
		<polygon id="XMLID_293_" class="st8" points="157.3,173.3 178.1,185.3 178.1,188.4 157.3,176.4 		"/>
		<polygon id="XMLID_292_" class="st8" points="178.1,188.4 157.8,176.7 157.8,177.4 178.1,189.1 		"/>
		<path id="XMLID_291_" class="st9" d="M183.5,187.2l5.6-3.2c0.2-0.1,0.4,0,0.4,0.3v3.3c0,0.3-0.2,0.6-0.4,0.8l-5.6,3.2
			c-0.2,0.1-0.4,0-0.4-0.3v-3.3C183,187.7,183.2,187.3,183.5,187.2z"/>
		<path id="XMLID_290_" class="st10" d="M183.8,187.6l4.8-2.8c0.2-0.1,0.3,0,0.3,0.2v2.5c0,0.2-0.1,0.4-0.3,0.5l-4.8,2.8
			c-0.2,0.1-0.3,0-0.3-0.2l0-2.5C183.5,187.9,183.7,187.6,183.8,187.6z"/>
		<g class="st11">
			<g>
				<path class="st9" d="M184,188.2C183.9,188.2,183.9,188.2,184,188.2c-0.1-0.1-0.1-0.1,0-0.1l4.6-2.6c0,0,0.1,0,0.1,0
					c0,0,0,0.1,0,0.1L184,188.2C184,188.2,184,188.2,184,188.2z"/>
			</g>
			<g>
				<path class="st9" d="M184,188.8C183.9,188.8,183.9,188.8,184,188.8c-0.1-0.1-0.1-0.1,0-0.1l4.6-2.6c0,0,0.1,0,0.1,0
					c0,0,0,0.1,0,0.1L184,188.8C184,188.8,184,188.8,184,188.8z"/>
			</g>
			<g>
				<path class="st9" d="M184,189.4C183.9,189.4,183.9,189.4,184,189.4c-0.1-0.1-0.1-0.1,0-0.1l4.6-2.6c0,0,0.1,0,0.1,0
					c0,0,0,0.1,0,0.1L184,189.4C184,189.4,184,189.4,184,189.4z"/>
			</g>
			<g>
				<path class="st9" d="M184,190C183.9,190,183.9,190,184,190c-0.1-0.1-0.1-0.1,0-0.1l4.6-2.6c0,0,0.1,0,0.1,0c0,0,0,0.1,0,0.1
					L184,190C184,190,184,190,184,190z"/>
			</g>
		</g>
	</g>
</g>
<g id="Window_1_">
	<g id="Window">
		<path id="XMLID_3891_" class="st3" d="M70.7,185.3c-0.5-0.3-1.8-1.5-1.8-2l0-5.2c0-0.6,0.4-1.2,0.9-1.5l94.4-54.5
			c0.5-0.3,1.1-0.5,2.6,0.5c0.4,0.3,0.8,0.9,0.8,1.5l0,5.2c0,0.6-0.4,1.2-0.9,1.5l-94.4,54.5C71.9,185.5,71.1,185.5,70.7,185.3z"/>
		<path id="XMLID_3890_" class="st13" d="M167.7,123.8c-0.1-0.4-0.4-0.6-0.9-0.4L72.4,178c-0.2,0.1-0.5,0.4-0.6,0.7l-2.6-1.5
			c0.2-0.3,0.4-0.5,0.6-0.6l94.4-54.5c0.5-0.3,1.1-0.4,2.6,0.5C167.3,122.8,167.6,123.3,167.7,123.8z"/>
		<path id="XMLID_3889_" class="st0" d="M72.2,262.8C72.2,262.8,72.2,262.8,72.2,262.8c-0.1,0-0.1,0-0.1,0c0,0,0,0-0.1,0
			c0,0-0.1,0-0.1,0c0,0-0.1,0-0.1,0c0,0-0.1,0-0.1,0c-0.4,0-0.7-0.1-1-0.2c-1.6-0.7-1.8-1.5-1.8-2l0-71.2l2.6,1.5v71.2
			c0,0.4,0.2,0.6,0.5,0.6c0,0,0.1,0,0.1,0C72.1,262.8,72.1,262.8,72.2,262.8C72.2,262.8,72.2,262.8,72.2,262.8z"/>
		<path id="XMLID_3888_" class="st14" d="M71.8,178.6c-0.2,0.3-0.3,0.6-0.3,0.9V191l-2.6-1.5V178c0,0,0-0.1,0-0.1c0-0.1,0-0.1,0-0.2
			c0-0.2,0.1-0.4,0.2-0.5L71.8,178.6z"/>
		<g id="XMLID_3885_">
			<path id="XMLID_3886_" class="st15" d="M167.7,206.6c0,0.6-0.4,1.2-0.9,1.5l-94.4,54.5c-0.5,0.3-0.9,0.1-0.9-0.5v-78l2.4-1.4
				c0.5-0.3,1.3-4.5,1.7-4.8l20.7-12c0.5-0.3,1.6,2.8,2.1,2.6l69.2-40v6.9L167.7,206.6z"/>
		</g>
		<g id="XMLID_3844_">
			<path id="XMLID_3884_" class="st16" d="M75.6,204.3L93.5,194c0.5-0.3,0.9-0.1,0.9,0.5v50.7c0,0.6-0.4,1.2-0.9,1.5L75.6,257
				c-0.5,0.3-0.9,0.1-0.9-0.5l0-50.7C74.8,205.3,75.2,204.6,75.6,204.3z"/>
		</g>
		<g id="XMLID_3828_">
			<path id="XMLID_3832_" class="st16" d="M98.5,208.1l30.4-17.6c0.5-0.3,0.9-0.1,0.9,0.5v33.8c0,0.6-0.4,1.2-0.9,1.5l-30.4,17.6
				c-0.5,0.3-0.9,0.1-0.9-0.5l0-33.8C97.6,209.1,98,208.4,98.5,208.1z"/>
		</g>
		<g id="XMLID_3833_">
			<path id="XMLID_3835_" class="st16" d="M133.2,187.9l30.4-17.6c0.5-0.3,0.9-0.1,0.9,0.5v33.8c0,0.6-0.4,1.2-0.9,1.5l-30.4,17.6
				c-0.5,0.3-0.9,0.1-0.9-0.5l0-33.8C132.3,188.9,132.7,188.2,133.2,187.9z"/>
		</g>
		<g id="XMLID_3773_">
			<path id="XMLID_3827_" class="st9" d="M75.6,191.2l87.9-50.8c0.5-0.3,0.9-0.1,0.9,0.5l0,9.3c0,0.6-0.4,1.2-0.9,1.5l-87.9,50.8
				c-0.5,0.3-0.9,0.1-0.9-0.5l0-9.3C74.8,192.1,75.2,191.4,75.6,191.2z"/>
			<g id="XMLID_3774_">
				<path id="XMLID_3826_" class="st16" d="M131.8,163.6l0,1.6c0,0.3,0.2,0.5,0.5,0.3l25.6-14.8l0-2.8l-25.6,14.8
					C132.1,162.8,131.8,163.2,131.8,163.6z"/>
				<path id="XMLID_3825_" class="st17" d="M160.7,146.3c0.3-0.2,0.5,0,0.5,0.3v1.6c0,0.3-0.2,0.7-0.5,0.9l-2.7,1.6l0-2.8
					L160.7,146.3z"/>
				<path id="XMLID_3775_" class="st16" d="M160.5,148.5l-0.3-0.1c0-0.1,0-0.3,0-0.4c0-0.3-0.1-0.6-0.3-0.7c-0.1-0.1-0.3-0.1-0.4,0
					c-0.3,0.2-0.6,0.8-0.6,1.3c0,0.3,0.1,0.6,0.3,0.7c0.1,0,0.1,0.1,0.2,0.1c0.1,0,0.2,0,0.3-0.1c0.2-0.1,0.4-0.4,0.5-0.7l0.3,0.1
					c0,0,0,0,0,0c0,0,0.1,0,0.1-0.1C160.5,148.6,160.5,148.6,160.5,148.5z M159.5,149.1c-0.1,0-0.2,0.1-0.2,0
					c-0.1-0.1-0.2-0.2-0.2-0.5c0-0.4,0.2-0.9,0.5-1.1c0,0,0.1,0,0.1,0c0,0,0.1,0,0.1,0c0.1,0.1,0.2,0.2,0.2,0.5
					C160,148.5,159.7,149,159.5,149.1z"/>
			</g>
		</g>
		<g id="XMLID_3770_">
			<path id="XMLID_3772_" class="st16" d="M97.6,192.7v11.2c0,0.6,0.4,0.8,0.9,0.5l65.1-37.6c0.5-0.3,0.9-1,0.9-1.5l0-11.2
				c0-0.6-0.4-0.8-0.9-0.5l-65.1,37.6C98,191.4,97.6,192.1,97.6,192.7z"/>
		</g>
		<path id="XMLID_3769_" class="st18" d="M167.7,128.6v6.9L71.5,191v-6.9l1.8-1c0.5-0.3,0.6-0.7,0.9-1.5l0.6-2.1
			c0.2-0.7,0.4-1.2,0.9-1.5l20.7-12c0.5-0.3,0.9-0.3,1.2,0.3l0.7,1.3c0.3,0.5,0.4,0.7,0.9,0.5L167.7,128.6z"/>
		<g id="XMLID_3765_">
			<path id="XMLID_3768_" class="st5" d="M163.6,127.1c0.5-0.3,0.9-0.1,0.9,0.5c0,0.6-0.4,1.3-0.9,1.6c-0.5,0.3-0.9,0.1-0.9-0.5
				C162.7,128.1,163.1,127.4,163.6,127.1z"/>
			<path id="XMLID_3767_" class="st5" d="M159.7,129.3c0.5-0.3,0.9-0.1,0.9,0.5c0,0.6-0.4,1.3-0.9,1.6c-0.5,0.3-0.9,0.1-0.9-0.5
				C158.8,130.4,159.2,129.6,159.7,129.3z"/>
			<path id="XMLID_3766_" class="st5" d="M155.7,131.6c0.5-0.3,0.9-0.1,0.9,0.5c0,0.6-0.4,1.3-0.9,1.6c-0.5,0.3-0.9,0.1-0.9-0.5
				C154.8,132.6,155.2,131.9,155.7,131.6z"/>
		</g>
		<path id="XMLID_3760_" class="st16" d="M82.9,181.9v-1.3c0-0.6,0.4-1.2,0.9-1.5l78.1-45.1c0.5-0.3,0.9-0.1,0.9,0.5l0,1.3
			c0,0.6-0.4,1.2-0.9,1.5l-78.1,45.1C83.3,182.7,82.9,182.5,82.9,181.9z"/>
		<g id="XMLID_3759_">
			<path class="st9" d="M160.8,137.6C160.8,137.6,160.8,137.6,160.8,137.6c-0.1,0-0.2-0.1-0.2-0.3l0.1-0.6l-0.3-0.2
				c-0.1,0-0.1-0.1-0.1-0.2c0-0.1,0.1-0.2,0.1-0.3l0.5-0.4c0,0,0,0,0,0l0.2-0.7c0-0.1,0.1-0.2,0.2-0.2c0.1,0,0.1,0,0.2,0.1l0.2,0.4
				l0.4-0.1c0.1,0,0.2,0,0.2,0c0.1,0.1,0.1,0.2,0,0.3l-0.3,0.6c0,0,0,0,0,0l0.1,0.6c0,0.1,0,0.2-0.1,0.3c-0.1,0.1-0.1,0.1-0.2,0.1
				l-0.4,0l-0.4,0.5C160.9,137.6,160.9,137.6,160.8,137.6z M160.6,136.3l0.3,0.2c0.1,0,0.1,0.1,0.1,0.2l-0.1,0.4l0.3-0.3
				c0.1-0.1,0.1-0.1,0.2-0.1l0.4,0c0,0,0,0,0,0l-0.1-0.6c0-0.1,0-0.1,0-0.2l0.3-0.5l-0.3,0.1c-0.1,0-0.2,0-0.2-0.1l-0.1-0.3
				l-0.2,0.6c0,0.1-0.1,0.1-0.1,0.2L160.6,136.3C160.6,136.2,160.6,136.3,160.6,136.3z M161.4,137C161.4,137,161.4,137,161.4,137
				L161.4,137z M161.8,136.7L161.8,136.7C161.8,136.7,161.8,136.7,161.8,136.7z M160.7,136.7C160.7,136.7,160.7,136.7,160.7,136.7
				L160.7,136.7z M160.6,136.3L160.6,136.3C160.6,136.3,160.6,136.3,160.6,136.3z M161.3,135C161.3,135,161.3,135,161.3,135
				L161.3,135z"/>
		</g>
		<g class="st19">
			<path id="XMLID_3764_" d="M75.5,185.4l-1.4,0.8l0.5-1c0-0.1,0.1-0.2,0-0.2c0,0-0.1,0-0.2,0.1l-0.7,1.4c0,0,0,0,0,0c0,0,0,0,0,0.1
				c0,0,0,0,0,0c0,0,0,0,0,0.1c0,0,0,0,0,0.1c0,0,0,0,0,0c0,0,0,0,0,0c0,0,0,0,0,0l0.7,0.6c0,0,0,0,0.1,0c0,0,0.1-0.1,0.1-0.1
				c0-0.1,0-0.2,0-0.2l-0.5-0.4l1.4-0.8c0.1,0,0.1-0.1,0.1-0.2S75.6,185.3,75.5,185.4z"/>
			<path id="XMLID_3763_" d="M76.6,184.7l1.4-0.8l-0.5-0.4c0,0-0.1-0.1,0-0.2c0-0.1,0.1-0.1,0.2-0.1l0.7,0.6c0,0,0,0,0,0
				c0,0,0,0,0,0c0,0,0,0,0,0c0,0,0,0,0,0.1c0,0,0,0,0,0.1c0,0,0,0,0,0c0,0,0,0,0,0.1c0,0,0,0,0,0l-0.7,1.4c0,0,0,0.1-0.1,0.1
				c0,0-0.1,0-0.1,0c0,0,0-0.2,0-0.2l0.5-1l-1.4,0.8c-0.1,0-0.1,0-0.1-0.1C76.5,184.8,76.6,184.7,76.6,184.7z"/>
			<path id="XMLID_3762_" d="M81.1,180.8c0-0.1-0.1-0.1-0.1,0l-0.2,0.5c-0.3,0-0.7,0.3-1,0.8c-0.3,0.7-0.3,1.6,0,1.9
				c0.2,0.2,0.4,0.2,0.6,0c0.2-0.1,0.4-0.4,0.6-0.7c0-0.1,0-0.2,0-0.2c0,0-0.1,0-0.2,0.1c-0.3,0.5-0.7,0.8-0.9,0.5
				c-0.3-0.2-0.3-0.9,0-1.4c0.2-0.4,0.4-0.6,0.7-0.6l-0.1,0.3c0,0.1,0,0.2,0.1,0.1l0.6-0.4c0,0,0.1-0.1,0.1-0.2L81.1,180.8z"/>
			<path id="XMLID_3761_" d="M96.2,168.8l0.5-1.1c0.1-0.1,0.1-0.3,0-0.3c-0.1-0.1-0.2,0-0.2,0.1l-0.5,1.1l-0.5-0.5
				c-0.1-0.1-0.2,0-0.2,0.1c-0.1,0.1-0.1,0.3,0,0.3l0.5,0.5l-0.5,1.1c-0.1,0.1-0.1,0.3,0,0.3c0,0,0.1,0,0.1,0c0,0,0.1-0.1,0.1-0.1
				l0.5-1.1l0.5,0.5c0,0,0.1,0,0.1,0c0,0,0.1-0.1,0.1-0.1c0.1-0.1,0.1-0.3,0-0.3L96.2,168.8z"/>
			<g id="XMLID_3752_">
				<g id="XMLID_3757_">
					<path id="XMLID_3758_" d="M163.8,133.5c-0.1,0-0.2-0.1-0.3-0.2c-0.1-0.1,0-0.3,0.1-0.4l2.4-1.4c0.1-0.1,0.3,0,0.4,0.1
						c0.1,0.1,0,0.3-0.1,0.4l-2.4,1.4C163.9,133.5,163.9,133.5,163.8,133.5z"/>
				</g>
				<g id="XMLID_3755_">
					<path id="XMLID_3756_" d="M163.8,134.9c-0.1,0-0.2-0.1-0.3-0.2c-0.1-0.1,0-0.3,0.1-0.4l2.4-1.4c0.1-0.1,0.3,0,0.4,0.1
						c0.1,0.1,0,0.3-0.1,0.4l-2.4,1.4C163.9,134.9,163.9,134.9,163.8,134.9z"/>
				</g>
				<g id="XMLID_3753_">
					<path id="XMLID_3754_" d="M163.8,136.3c-0.1,0-0.2-0.1-0.3-0.2c-0.1-0.1,0-0.3,0.1-0.4l2.4-1.4c0.1-0.1,0.3,0,0.4,0.1
						c0.1,0.1,0,0.3-0.1,0.4l-2.4,1.4C163.9,136.3,163.9,136.3,163.8,136.3z"/>
				</g>
			</g>
		</g>
		<polygon id="XMLID_3751_" class="st18" points="71.5,184.1 71.5,191 68.9,189.5 68.9,182.7 		"/>
		<polygon id="XMLID_1348_" class="st6" points="71.5,184.1 71.5,191 68.9,189.5 68.9,182.7 		"/>
		<g>
			<g>
				<path class="st17" d="M88.2,218l0,10.9l-7.3,4.2l0-10.9L88.2,218 M88.2,217.6c-0.1,0-0.1,0-0.2,0.1l-7.3,4.2
					c-0.1,0.1-0.2,0.2-0.2,0.3l0,10.9c0,0.1,0.1,0.3,0.2,0.3c0.1,0,0.1,0.1,0.2,0.1c0.1,0,0.1,0,0.2-0.1l7.3-4.2
					c0.1-0.1,0.2-0.2,0.2-0.3l0-10.9c0-0.1-0.1-0.3-0.2-0.3C88.3,217.6,88.3,217.6,88.2,217.6L88.2,217.6z"/>
			</g>
			<g>
				<path class="st17" d="M87.1,220.5v3.2l-0.2,0.1c0,0,0-0.4,0-1c0-0.4-0.2-0.6-0.5-0.6c-0.1,0-0.2,0-0.3,0.1l-1.1,0.6v4.7
					c0,0.5,0.2,0.8,0.5,0.8c0.1,0,0.1,0,0.2-0.1c0.4-0.2,0.7-0.4,0.7-0.4v0.3l-3.7,2.1V230l0.7-0.4c0.4-0.2,0.7-0.9,0.7-1.5v-4.7
					l-1.1,0.6c-0.4,0.2-0.8,0.9-0.8,1.4v1l-0.2,0.1v-3.2L87.1,220.5 M87.1,220.1c-0.1,0-0.1,0-0.2,0.1l-5.1,3
					c-0.1,0.1-0.2,0.2-0.2,0.3v3.2c0,0.1,0.1,0.3,0.2,0.3c0.1,0,0.1,0,0.2,0c0.1,0,0.1,0,0.2-0.1l0.2-0.1c0.1-0.1,0.2-0.2,0.2-0.3
					v-1c0-0.4,0.3-0.9,0.6-1.1l0.5-0.3v4c0,0.5-0.3,1.1-0.5,1.2l-0.7,0.4c-0.1,0.1-0.2,0.2-0.2,0.3v0.3c0,0.1,0.1,0.3,0.2,0.3
					c0.1,0,0.1,0.1,0.2,0.1s0.1,0,0.2-0.1l3.7-2.1c0.1-0.1,0.2-0.2,0.2-0.3v-0.3c0-0.1-0.1-0.3-0.2-0.3c-0.1,0-0.1-0.1-0.2-0.1
					c-0.1,0-0.1,0-0.2,0.1l-0.7,0.4c0,0,0,0,0,0c0,0-0.1-0.2-0.1-0.4v-4.5l0.9-0.5c0.1,0,0.1,0,0.1,0c0,0,0.1,0.1,0.1,0.2v1
					c0,0.1,0.1,0.3,0.2,0.3c0.1,0,0.1,0.1,0.2,0.1c0.1,0,0.1,0,0.2,0l0.2-0.1c0.1-0.1,0.2-0.2,0.2-0.3v-3.2c0-0.1-0.1-0.3-0.2-0.3
					C87.2,220.1,87.2,220.1,87.1,220.1L87.1,220.1z"/>
			</g>
		</g>
		<g>
			<g id="XMLID_3842_">
				<path class="st17" d="M108.7,222.3C108.7,222.3,108.6,222.3,108.7,222.3c-0.2-0.1-0.2-0.2-0.2-0.3l2.2-4.4
					c0.1-0.1,0.2-0.2,0.3-0.2c0.1,0,0.2,0,0.3,0.1l1.9,1.2l0.2,0l-0.2-0.1l2.2-5.4c0.1-0.1,0.2-0.2,0.3-0.2c0.1,0,0.2,0,0.3,0.1
					l2.7,2.8c0.1,0.1,0.1,0.2,0,0.3c-0.1,0.1-0.2,0.1-0.3,0l-2.7-2.8l-2.2,5.3c0,0.1-0.1,0.2-0.3,0.2c-0.1,0-0.3,0-0.4-0.1l-1.9-1.3
					l-2.2,4.4C108.8,222.2,108.8,222.3,108.7,222.3z"/>
			</g>
			<g id="XMLID_3837_">
				<path class="st17" d="M119,209.2L119,209.2L119,209.2 M118.6,209.4v9.9l-9.9,5.7v-9.9c0,0,0,0,0,0L118.6,209.4 M118.9,208.8
					C118.9,208.8,118.8,208.8,118.9,208.8l-0.5,0.2l-9.9,5.7c0,0-0.1,0.1-0.1,0.1c0,0.1-0.1,0.1-0.1,0.2v10.4c0,0.1,0,0.1,0.1,0.1
					c0,0,0,0,0.1,0l10.3-5.9c0.1-0.1,0.2-0.2,0.2-0.3v-10.4C119,208.9,118.9,208.8,118.9,208.8L118.9,208.8z"/>
			</g>
			<g id="XMLID_3836_">
				<path class="st17" d="M111.8,216.4c-0.1,0-0.2,0-0.3-0.1c-0.2-0.1-0.3-0.3-0.3-0.6c0-0.5,0.3-1.1,0.8-1.4c0.2-0.1,0.5-0.2,0.7,0
					c0.2,0.1,0.3,0.3,0.3,0.6c0,0.5-0.3,1.1-0.8,1.4C112.1,216.4,111.9,216.4,111.8,216.4z M112.4,214.6c-0.1,0-0.1,0-0.2,0.1
					c-0.3,0.2-0.6,0.7-0.6,1c0,0.1,0,0.2,0.1,0.3c0.1,0,0.2,0,0.3,0c0.3-0.2,0.6-0.7,0.6-1C112.6,214.8,112.6,214.7,112.4,214.6
					C112.5,214.6,112.5,214.6,112.4,214.6z"/>
			</g>
		</g>
		<g>
			<g>
				<g>
					<path class="st17" d="M150.1,191.5L150.1,191.5c1.2,0,2,1.2,2,3c0,1.5-0.5,3.2-1.4,4.8c-0.3,0.6-0.7,1.1-1.1,1.5
						c-0.5,0.6-1,1-1.5,1.3c-0.5,0.3-0.9,0.4-1.4,0.4c-1.2,0-2-1.2-2-3c0-1.5,0.5-3.2,1.4-4.8c0.7-1.3,1.7-2.3,2.6-2.9
						C149.2,191.6,149.7,191.5,150.1,191.5 M150.1,191.1c-0.5,0-1,0.2-1.6,0.5c-1,0.6-2,1.6-2.8,3c-0.9,1.6-1.5,3.4-1.5,5
						c0,2.1,1,3.4,2.3,3.4c0.5,0,1-0.2,1.6-0.5c0.6-0.3,1.1-0.8,1.6-1.4c0.4-0.5,0.8-1,1.1-1.6c0.9-1.6,1.5-3.4,1.5-5
						C152.4,192.4,151.5,191.1,150.1,191.1L150.1,191.1z"/>
				</g>
			</g>
			<g>
				<g>
					<path class="st17" d="M147.4,195.8L147.4,195.8L147.4,195.8 M147.4,195.8l2.9,0.3c0,0,0,0.1-0.1,0.1l-3,3.7v-3.7
						C147.2,195.9,147.3,195.8,147.4,195.8 M147.3,195.4c-0.3,0-0.5,0.3-0.5,0.7v4c0,0.2,0.1,0.4,0.2,0.4c0.1,0,0.2-0.1,0.3-0.2
						l3.1-3.9c0.3-0.3,0.3-0.7,0-0.7L147.3,195.4C147.4,195.4,147.4,195.4,147.3,195.4L147.3,195.4z"/>
				</g>
			</g>
		</g>
	</g>
</g>
<g id="Sheets">
	<g id="Sheets_2_">
		<g id="Character_3_">
			<g>
				<g>
					<g>
						<polygon class="st20" points="162.3,244.4 188.7,259.7 188.7,243.5 162.3,228.2 						"/>
					</g>
					<g>
						<polygon class="st10" points="207.1,249.1 188.7,259.7 188.7,243.5 207.1,232.9 						"/>
					</g>
					<polygon class="st16" points="162.3,228.2 180.6,217.6 207.1,232.9 188.7,243.5 					"/>
				</g>
			</g>
		</g>
		<polygon class="st2" points="176.1,241.6 188.7,248.9 196.3,244.5 188.7,249.4 		"/>
		<polygon class="st2" points="168.5,241.3 188.7,253 203.9,244.2 188.7,253.4 		"/>
		<path class="st2" d="M164.9,234.2c0,0-0.4,2.4-0.2,3.6c0,0,3.3-0.1,8.9,1.5L164.9,234.2z"/>
		<polygon class="st16" points="164.9,234.2 173.6,239.2 163.9,236.4 		"/>
		<path class="st2" d="M176.1,248.2l9.5,8.8c0,0,0.3-1.2,2.1-2.1L176.1,248.2z"/>
		<polygon class="st16" points="176.1,248.2 185,255.8 187.7,254.9 		"/>
		<path class="st2" d="M204,239.3c0-0.1-0.1-0.1-0.1-0.1l-6,3.5l6.8-0.6C204.9,240.9,204.3,239.7,204,239.3z"/>
		<polygon class="st16" points="197.9,242.7 203.9,239.2 205.9,240.3 		"/>
		<g class="st19">
			<g>
				<path class="st9" d="M167,229.3c-0.1,0-0.2,0-0.2-0.1c-0.1-0.1,0-0.3,0.1-0.3l15.2-8.8c0.1-0.1,0.3,0,0.3,0.1
					c0.1,0.1,0,0.3-0.1,0.3l-15.2,8.8C167,229.3,167,229.3,167,229.3z"/>
			</g>
			<g>
				<path class="st9" d="M169.5,230.8c-0.1,0-0.2,0-0.2-0.1c-0.1-0.1,0-0.3,0.1-0.3l15.2-8.8c0.1-0.1,0.3,0,0.3,0.1
					c0.1,0.1,0,0.3-0.1,0.3l-15.2,8.8C169.6,230.8,169.5,230.8,169.5,230.8z"/>
			</g>
			<g>
				<path class="st9" d="M172,232.2c-0.1,0-0.2,0-0.2-0.1c-0.1-0.1,0-0.3,0.1-0.3l15.2-8.8c0.1-0.1,0.3,0,0.3,0.1
					c0.1,0.1,0,0.3-0.1,0.3l-15.2,8.8C172.1,232.2,172.1,232.2,172,232.2z"/>
			</g>
			<g>
				<path class="st9" d="M174.6,233.7c-0.1,0-0.2,0-0.2-0.1c-0.1-0.1,0-0.3,0.1-0.3l15.2-8.8c0.1-0.1,0.3,0,0.3,0.1
					c0.1,0.1,0,0.3-0.1,0.3l-15.2,8.8C174.6,233.7,174.6,233.7,174.6,233.7z"/>
			</g>
			<g>
				<path class="st9" d="M177.1,235.2c-0.1,0-0.2,0-0.2-0.1c-0.1-0.1,0-0.3,0.1-0.3l15.2-8.8c0.1-0.1,0.3,0,0.3,0.1
					c0.1,0.1,0,0.3-0.1,0.3l-15.2,8.8C177.2,235.2,177.1,235.2,177.1,235.2z"/>
			</g>
			<g>
				<path class="st9" d="M179.6,236.6c-0.1,0-0.2,0-0.2-0.1c-0.1-0.1,0-0.3,0.1-0.3l15.2-8.8c0.1-0.1,0.3,0,0.3,0.1
					c0.1,0.1,0,0.3-0.1,0.3l-15.2,8.8C179.7,236.6,179.7,236.6,179.6,236.6z"/>
			</g>
			<g>
				<path class="st9" d="M182.2,238.1c-0.1,0-0.2,0-0.2-0.1c-0.1-0.1,0-0.3,0.1-0.3l15.2-8.8c0.1-0.1,0.3,0,0.3,0.1
					c0.1,0.1,0,0.3-0.1,0.3l-15.2,8.8C182.2,238.1,182.2,238.1,182.2,238.1z"/>
			</g>
			<g>
				<path class="st9" d="M184.7,239.5c-0.1,0-0.2,0-0.2-0.1c-0.1-0.1,0-0.3,0.1-0.3l15.2-8.8c0.1-0.1,0.3,0,0.3,0.1
					c0.1,0.1,0,0.3-0.1,0.3l-15.2,8.8C184.8,239.5,184.7,239.5,184.7,239.5z"/>
			</g>
			<g>
				<path class="st9" d="M187.2,241c-0.1,0-0.2,0-0.2-0.1c-0.1-0.1,0-0.3,0.1-0.3l15.2-8.8c0.1-0.1,0.3,0,0.3,0.1
					c0.1,0.1,0,0.3-0.1,0.3l-15.2,8.8C187.3,241,187.3,241,187.2,241z"/>
			</g>
		</g>
	</g>
</g>
<g id="Video_1_">
	<g id="Video">
		<g id="XMLID_630_">
			<path id="XMLID_1258_" class="st3" d="M151,206.8l-30.3,17.5c-0.4,0.2-0.7,0.8-0.7,1.2v28.9c0,0.5,0.3,1,0.7,1.2l1.2,0.7
				c0.4,0.2,1,0.2,1.4,0l30.3-17.5c0.4-0.2,0.7-0.8,0.7-1.2l0-28.9c0-0.5-0.3-1-0.7-1.2l-1.2-0.7C152.1,206.6,151.4,206.6,151,206.8
				z"/>
			<path id="XMLID_667_" class="st19" d="M151,206.8l-30.3,17.5c-0.4,0.2-0.7,0.8-0.7,1.2v28.9c0,0.5,0.3,1,0.7,1.2l1.2,0.7
				c0.4,0.2,1,0.2,1.4,0l30.3-17.5c0.4-0.2,0.7-0.8,0.7-1.2l0-28.9c0-0.5-0.3-1-0.7-1.2l-1.2-0.7C152.1,206.6,151.4,206.6,151,206.8
				z"/>
			<path id="XMLID_1257_" class="st3" d="M154.3,208.5c-0.1-0.3-0.4-0.4-0.7-0.2l-30.3,17.5c-0.2,0.1-0.4,0.3-0.5,0.5l-2.6-1.5
				c0.1-0.2,0.3-0.4,0.5-0.5l30.3-17.5c0.4-0.2,1-0.2,1.4,0l1.2,0.7C154,207.7,154.2,208.1,154.3,208.5z"/>
			<path id="XMLID_656_" class="st8" d="M154.3,208.5c-0.1-0.3-0.4-0.4-0.7-0.2l-30.3,17.5c-0.2,0.1-0.4,0.3-0.5,0.5l-2.6-1.5
				c0.1-0.2,0.3-0.4,0.5-0.5l30.3-17.5c0.4-0.2,1-0.2,1.4,0l1.2,0.7C154,207.7,154.2,208.1,154.3,208.5z"/>
			<path id="XMLID_635_" class="st3" d="M153.6,208.3l-30.3,17.5c-0.4,0.2-0.7,0.8-0.7,1.2l0,28.9c0,0.5,0.3,0.6,0.7,0.4l30.3-17.5
				c0.4-0.2,0.7-0.8,0.7-1.2l0-28.9C154.3,208.3,154,208.1,153.6,208.3z"/>
			<g>
				<g>
					<g>
						<path class="st5" d="M135.9,243.2c-0.8,0-1.5-0.2-2.2-0.6c-1.8-1.1-2.9-3.4-2.9-6.5c0-2.9,0.9-6,2.4-8.7
							c0.5-0.9,1.1-1.7,1.7-2.4l0,0c0.9-1,1.9-1.9,2.9-2.5c2-1.1,3.9-1.3,5.4-0.4c1.8,1.1,2.9,3.4,2.9,6.5c0,2.9-0.9,6-2.4,8.7
							c-1.2,2.2-2.9,3.9-4.6,4.9C138,242.9,136.9,243.2,135.9,243.2z M135.8,225.6c-0.6,0.7-1.1,1.5-1.6,2.3
							c-1.5,2.5-2.3,5.5-2.3,8.2c0,2.7,0.9,4.8,2.3,5.6c1.2,0.7,2.7,0.5,4.3-0.4c1.6-0.9,3.1-2.5,4.2-4.5c1.5-2.5,2.3-5.5,2.3-8.2
							c0-2.7-0.9-4.8-2.3-5.6c-1.2-0.7-2.7-0.5-4.3,0.4C137.5,223.9,136.6,224.6,135.8,225.6L135.8,225.6z"/>
					</g>
				</g>
				<g>
					<path class="st5" d="M142.5,230.7l-5.9,7.4c-0.5,0.7-1,0.6-1-0.2v-7.6c0-0.8,0.4-1.4,1-1.4l5.9,0.5
						C143.1,229.4,143.1,230,142.5,230.7z"/>
				</g>
			</g>
		</g>
	</g>
</g>
<g id="Photo">
	<g id="Image_1_">
		<path class="st21" d="M112,230.5v26.3c0,0.3-0.2,0.6-0.4,0.8l-26.1,15.1c-0.2,0.1-0.4,0-0.4-0.3V271l25.6-14.8v-25.4l1-0.6
			C111.8,230.1,112,230.2,112,230.5z"/>
		<path class="st3" d="M110.6,230.8v25.4L84.9,271v-24.9c0-0.1,0-0.3,0.1-0.4c0.1-0.1,0.2-0.3,0.3-0.3L110.6,230.8z"/>
		<path class="st22" d="M110.6,230.8v25.4L84.9,271v-24.9c0-0.1,0-0.3,0.1-0.4c0.1-0.1,0.2-0.3,0.3-0.3L110.6,230.8z"/>
		<g id="XMLID_217_">
			<path id="XMLID_228_" class="st3" d="M104.2,241.6C104.2,241.6,104.2,241.6,104.2,241.6L104.2,241.6L104.2,241.6
				c-0.1-0.1-0.1-0.1-0.1-0.1l-1.6-0.9v0l0,0l0,0c-0.2-0.1-0.6-0.1-0.7,0.2L96,255l-3.8-2.5c0,0-0.1,0-0.1-0.1l0,0l0,0c0,0,0,0,0,0
				l-1.6-0.9l0,0c-0.2-0.2-0.6-0.1-0.7,0.2L84.1,263l0,7.5l1.6,0.9l25.2-14.5c0.3-0.2,0.5-0.5,0.5-0.8V249L104.2,241.6z"/>
			<path id="XMLID_220_" class="st23" d="M104.2,241.6C104.2,241.6,104.2,241.6,104.2,241.6L104.2,241.6L104.2,241.6
				c-0.1-0.1-0.1-0.1-0.1-0.1l-1.6-0.9v0l0,0l0,0c-0.2-0.1-0.6-0.1-0.7,0.2L96,255l-3.8-2.5c0,0-0.1,0-0.1-0.1l0,0l0,0c0,0,0,0,0,0
				l-1.6-0.9l0,0c-0.2-0.2-0.6-0.1-0.7,0.2L84.1,263l0,7.5l1.6,0.9l25.2-14.5c0.3-0.2,0.5-0.5,0.5-0.8V249L104.2,241.6z"/>
			<path id="XMLID_219_" class="st3" d="M85.8,271.5l0-7.5l5.6-11.3c0.2-0.3,0.6-0.3,0.8-0.1l5.4,3.5l5.9-14.3
				c0.2-0.3,0.6-0.3,0.8-0.1l7.1,7.4v7.1c0,0.3-0.2,0.6-0.5,0.8L85.8,271.5z"/>
			<polygon id="XMLID_218_" class="st23" points="97.5,256 95.8,260.1 96.9,255.6 			"/>
		</g>
		<g id="XMLID_209_">
			<path id="XMLID_213_" class="st24" d="M113,228.8C113,228.8,113,228.8,113,228.8c-0.1-0.3-0.2-0.6-0.4-0.7l-0.8-0.4
				c-0.2-0.1-0.6-0.1-0.9,0l-28,16.2c-0.1,0.1-0.2,0.2-0.3,0.3c-0.1,0.1-0.1,0.3-0.1,0.4v32.9c0,0.3,0.2,0.6,0.4,0.8l0.8,0.4
				c0.2,0.1,0.5,0.1,0.8,0c0,0,0,0,0,0c0,0,0,0,0.1,0l28-16.2c0.2-0.1,0.4-0.5,0.4-0.8L113,228.8C113,228.9,113,228.9,113,228.8z
				 M112,256.8c0,0.3-0.2,0.6-0.4,0.8l-26.1,15.1c-0.2,0.1-0.4,0-0.4-0.3v-26.3c0-0.1,0-0.3,0.1-0.4c0.1-0.1,0.2-0.3,0.3-0.3
				l26.1-15.1c0.2-0.1,0.4,0,0.4,0.3V256.8z"/>
			<path id="XMLID_212_" class="st21" d="M84.5,278.8c-0.2,0.1-0.6,0.1-0.8,0l-0.8-0.4c-0.2-0.1-0.4-0.5-0.4-0.8v-32.9
				c0-0.1,0-0.3,0.1-0.4c0.5,0.3,1,0.6,1.6,0.9c-0.1,0.1-0.1,0.3-0.1,0.4v32.9C84.1,278.7,84.3,278.8,84.5,278.8z"/>
			<g id="XMLID_210_">
				<path class="st9" d="M113,228.8C113,228.8,113,228.8,113,228.8c-0.1-0.2-0.2-0.3-0.4-0.2l-28,16.2c-0.1,0.1-0.2,0.2-0.3,0.3
					c-0.1,0.1-0.1,0.3-0.1,0.4v32.9c0,0.2,0.1,0.4,0.3,0.3c0,0,0,0,0,0c0,0,0,0,0.1,0l28-16.2c0.2-0.1,0.4-0.5,0.4-0.8L113,228.8
					C113,228.9,113,228.9,113,228.8z M112,256.8c0,0.3-0.2,0.6-0.4,0.8l-26.1,15.1c-0.2,0.1-0.4,0-0.4-0.3v-26.3
					c0-0.1,0-0.3,0.1-0.4c0.1-0.1,0.2-0.3,0.3-0.3l25.2-14.6l1-0.6c0.2-0.1,0.4,0,0.4,0.3V256.8z"/>
			</g>
		</g>
		<g id="XMLID_204_">
			<g id="XMLID_206_">
				<path id="XMLID_208_" class="st3" d="M95.2,245.6l0.6-1.1l-1.3-0.8c0,0,0,0,0,0l0,0l0,0c-0.3-0.2-0.8-0.2-1.2,0.1
					c-1,0.6-1.8,1.9-1.8,3c0,0.6,0.2,0.9,0.5,1.1l0,0l0,0c0,0,0,0,0,0l1.3,0.7l0.6-1C94.5,247.3,95,246.4,95.2,245.6z"/>
				<path id="XMLID_207_" class="st23" d="M95.2,245.6l0.6-1.1l-1.3-0.8c0,0,0,0,0,0l0,0l0,0c-0.3-0.2-0.8-0.2-1.2,0.1
					c-1,0.6-1.8,1.9-1.8,3c0,0.6,0.2,0.9,0.5,1.1l0,0l0,0c0,0,0,0,0,0l1.3,0.7l0.6-1C94.5,247.3,95,246.4,95.2,245.6z"/>
			</g>
			<path id="XMLID_205_" class="st3" d="M94.6,244.7c1-0.6,1.8-0.1,1.8,1c0,1.1-0.8,2.5-1.8,3c-1,0.6-1.8,0.1-1.8-1
				S93.6,245.2,94.6,244.7z"/>
		</g>
	</g>
</g>
<g id="Box_3_">
	<g id="Box_2_">
		<g id="XMLID_1298_">
			<polygon id="XMLID_1323_" class="st3" points="159.9,288.4 138.8,300.6 115,286.8 136.1,274.6 			"/>
			<polygon id="XMLID_1322_" class="st25" points="159.9,288.4 138.8,300.6 115,286.8 136.1,274.6 			"/>
			<polygon id="XMLID_1321_" class="st3" points="136.1,258.1 136.1,274.6 115,286.8 115,270.3 			"/>
			<polygon id="XMLID_1320_" class="st26" points="136.1,258.1 136.1,274.6 115,286.8 115,270.3 			"/>
			<polygon id="XMLID_1317_" class="st3" points="159.9,271.9 159.9,288.4 136.1,274.6 136.1,258.1 			"/>
			<polygon id="XMLID_1316_" class="st27" points="159.9,271.9 159.9,288.4 136.1,274.6 136.1,258.1 			"/>
			<polygon id="XMLID_1313_" class="st3" points="136.1,258.1 136.1,249 159.9,262.7 159.9,271.9 			"/>
			<polygon id="XMLID_1312_" class="st28" points="136.1,258.1 136.1,249 159.9,262.7 159.9,271.9 			"/>
			<polygon id="XMLID_1309_" class="st3" points="115,270.3 112.5,262 133.6,249.8 136.1,258.1 			"/>
			<polygon id="XMLID_1308_" class="st4" points="115,270.3 112.5,262 133.6,249.8 136.1,258.1 			"/>
		</g>
		<g id="Document_4_">
			<path id="XMLID_3882_" class="st15" d="M120,286.2c-0.2-0.1-0.4-0.5-0.4-0.7l-1.8-29.1c0-0.3,0.2-0.6,0.4-0.7l18.1-10.4
				c0.2-0.1,0.6-0.1,0.8,0c0.2,0.1,0.4,0.5,0.4,0.7l1.8,29.1c0,0.3-0.2,0.6-0.4,0.7l-18.1,10.4C120.6,286.3,120.2,286.3,120,286.2z"
				/>
			<g id="XMLID_3881_">
				<path class="st16" d="M118.9,256.8c0-0.2,0.1-0.4,0.3-0.5l18.1-10.4l1.8,29.2c0,0.2-0.1,0.4-0.3,0.5L120.7,286l0,0L118.9,256.8z
					"/>
				<path class="st20" d="M137.1,246.3l1.8,28.8c0,0.1-0.1,0.2-0.1,0.3l-17.8,10.2l-1.8-28.8c0-0.1,0.1-0.2,0.1-0.3L137.1,246.3
					 M137.3,245.7c-0.1,0-0.1,0-0.2,0.1L119,256.1c-0.2,0.1-0.4,0.5-0.4,0.7l1.8,29.1c0,0.2,0.1,0.3,0.3,0.3c0.1,0,0.1,0,0.2-0.1
					l18.1-10.4c0.2-0.1,0.4-0.5,0.4-0.7l-1.8-29.1C137.5,245.8,137.4,245.7,137.3,245.7L137.3,245.7z"/>
			</g>
			<path id="XMLID_3880_" class="st18" d="M120.8,286.2c-0.2,0.1-0.6,0.1-0.8,0c-0.2-0.1-0.4-0.5-0.4-0.7l-1.8-29.1
				c0-0.1,0-0.3,0.1-0.4l0.8,0.5c-0.1,0.1-0.1,0.3-0.1,0.4l1.8,29.1C120.4,286.2,120.6,286.3,120.8,286.2z"/>
			<g>
				<path id="XMLID_3877_" class="st18" d="M128.1,253.8l6.4-3.7c0.2-0.1,0.4,0,0.4,0.2l0,0.1c0,0.2-0.1,0.5-0.3,0.6l-6.4,3.7
					c-0.2,0.1-0.4,0-0.4-0.2l0-0.1C127.8,254.2,127.9,253.9,128.1,253.8z"/>
				<path id="XMLID_3876_" class="st18" d="M128.3,256.3l6.4-3.7c0.2-0.1,0.4,0,0.4,0.2l0,0.1c0,0.2-0.1,0.5-0.3,0.6l-6.4,3.7
					c-0.2,0.1-0.4,0-0.4-0.2l0-0.1C128,256.7,128.1,256.4,128.3,256.3z"/>
				<path id="XMLID_3874_" class="st18" d="M128.5,258.8l6.4-3.7c0.2-0.1,0.4,0,0.4,0.2l0,0.1c0,0.2-0.1,0.5-0.3,0.6l-6.4,3.7
					c-0.2,0.1-0.4,0-0.4-0.2l0-0.1C128.1,259.2,128.3,258.9,128.5,258.8z"/>
				<path id="XMLID_3872_" class="st18" d="M122,267.7l13.1-7.6c0.2-0.1,0.4,0,0.4,0.2l0,0.1c0,0.2-0.1,0.5-0.3,0.6l-13.1,7.6
					c-0.2,0.1-0.4,0-0.4-0.2l0-0.1C121.7,268.1,121.8,267.9,122,267.7z"/>
				<path id="XMLID_3871_" class="st18" d="M121.9,265.2l13.1-7.6c0.2-0.1,0.4,0,0.4,0.2l0,0.1c0,0.2-0.1,0.5-0.3,0.6l-13.1,7.6
					c-0.2,0.1-0.4,0-0.4-0.2l0-0.1C121.5,265.6,121.7,265.3,121.9,265.2z"/>
				<path id="XMLID_3868_" class="st18" d="M122.2,270.3l13.1-7.6c0.2-0.1,0.4,0,0.4,0.2l0,0.1c0,0.2-0.1,0.5-0.3,0.6l-13.1,7.6
					c-0.2,0.1-0.4,0-0.4-0.2l0-0.1C121.8,270.7,122,270.4,122.2,270.3z"/>
				<path id="XMLID_3867_" class="st18" d="M122.3,272.8l13.1-7.6c0.2-0.1,0.4,0,0.4,0.2l0,0.1c0,0.2-0.1,0.5-0.3,0.6l-13.1,7.6
					c-0.2,0.1-0.4,0-0.4-0.2l0-0.1C122,273.2,122.1,272.9,122.3,272.8z"/>
				<path id="XMLID_3866_" class="st18" d="M122.5,275.4l13.1-7.6c0.2-0.1,0.4,0,0.4,0.2l0,0.1c0,0.2-0.1,0.5-0.3,0.6l-13.1,7.6
					c-0.2,0.1-0.4,0-0.4-0.2l0-0.1C122.1,275.8,122.3,275.5,122.5,275.4z"/>
				<path id="XMLID_3865_" class="st18" d="M122.6,277.9l13.1-7.6c0.2-0.1,0.4,0,0.4,0.2l0,0.1c0,0.2-0.1,0.5-0.3,0.6l-13.1,7.6
					c-0.2,0.1-0.4,0-0.4-0.2l0-0.1C122.3,278.3,122.4,278,122.6,277.9z"/>
				<path id="XMLID_3857_" class="st18" d="M122.8,280.4l13.1-7.6c0.2-0.1,0.4,0,0.4,0.2l0,0.1c0,0.2-0.1,0.5-0.3,0.6l-13.1,7.6
					c-0.2,0.1-0.4,0-0.4-0.2l0-0.1C122.4,280.8,122.6,280.5,122.8,280.4z"/>
			</g>
			<g id="XMLID_3847_">
				<g id="XMLID_3851_">
					<polygon id="XMLID_3855_" class="st17" points="121.1,257.4 126.4,254.3 126.8,260.7 121.5,263.7 					"/>
				</g>
				<path class="st16" d="M122,258l0.1,1.9l0.2-0.1l0-0.6c0-0.3,0.2-0.7,0.5-0.9l0.8-0.4l0.2,2.8c0,0.4-0.2,0.8-0.5,1l-0.5,0.3
					l0,0.2l2.7-1.5l0-0.2c0,0-0.2,0.1-0.5,0.3c-0.3,0.2-0.5,0-0.5-0.4l-0.2-2.8l0.8-0.4c0.3-0.2,0.6-0.1,0.6,0.3c0,0.3,0,0.6,0,0.6
					l0.2-0.1l-0.1-1.9L122,258z"/>
			</g>
		</g>
		<g id="Document_7_">
			<path id="XMLID_4043_" class="st15" d="M127.6,290.6c-0.2-0.1-0.4-0.5-0.4-0.7l-1.8-29.1c0-0.3,0.2-0.6,0.4-0.7l18.1-10.4
				c0.2-0.1,0.6-0.1,0.8,0c0.2,0.1,0.4,0.5,0.4,0.7l1.8,29.1c0,0.3-0.2,0.6-0.4,0.7l-18.1,10.4C128.2,290.7,127.8,290.7,127.6,290.6
				z"/>
			<g id="XMLID_4041_">
				<path class="st16" d="M126.4,261.2c0-0.2,0.1-0.4,0.3-0.5l18.1-10.4l1.8,29.2c0,0.2-0.1,0.4-0.3,0.5l-18.1,10.4l0,0L126.4,261.2
					z"/>
				<path class="st20" d="M144.6,250.7l1.8,28.8c0,0.1-0.1,0.2-0.1,0.3L128.4,290l-1.8-28.8c0-0.1,0.1-0.2,0.1-0.3L144.6,250.7
					 M144.8,250c-0.1,0-0.1,0-0.2,0.1l-18.1,10.4c-0.2,0.1-0.4,0.5-0.4,0.7l1.8,29.1c0,0.2,0.1,0.3,0.3,0.3c0.1,0,0.1,0,0.2-0.1
					l18.1-10.4c0.2-0.1,0.4-0.5,0.4-0.7l-1.8-29.1C145.1,250.1,145,250,144.8,250L144.8,250z"/>
			</g>
			<path id="XMLID_4040_" class="st18" d="M128.3,290.6c-0.2,0.1-0.6,0.1-0.8,0c-0.2-0.1-0.4-0.5-0.4-0.7l-1.8-29.1
				c0-0.1,0-0.3,0.1-0.4l0.8,0.5c-0.1,0.1-0.1,0.3-0.1,0.4l1.8,29.1C128,290.6,128.1,290.7,128.3,290.6z"/>
			<g>
				<path id="XMLID_4039_" class="st18" d="M135.7,258.1l6.4-3.7c0.2-0.1,0.4,0,0.4,0.2l0,0.1c0,0.2-0.1,0.5-0.3,0.6l-6.4,3.7
					c-0.2,0.1-0.4,0-0.4-0.2l0-0.1C135.3,258.5,135.5,258.2,135.7,258.1z"/>
				<path id="XMLID_4015_" class="st18" d="M135.8,260.6l6.4-3.7c0.2-0.1,0.4,0,0.4,0.2l0,0.1c0,0.2-0.1,0.5-0.3,0.6l-6.4,3.7
					c-0.2,0.1-0.4,0-0.4-0.2l0-0.1C135.5,261,135.6,260.8,135.8,260.6z"/>
				<path id="XMLID_4007_" class="st18" d="M136,263.2l6.4-3.7c0.2-0.1,0.4,0,0.4,0.2l0,0.1c0,0.2-0.1,0.5-0.3,0.6l-6.4,3.7
					c-0.2,0.1-0.4,0-0.4-0.2l0-0.1C135.6,263.6,135.8,263.3,136,263.2z"/>
				<path id="XMLID_4006_" class="st18" d="M129.6,272.1l13.1-7.6c0.2-0.1,0.4,0,0.4,0.2l0,0.1c0,0.2-0.1,0.5-0.3,0.6l-13.1,7.6
					c-0.2,0.1-0.4,0-0.4-0.2l0-0.1C129.2,272.5,129.4,272.2,129.6,272.1z"/>
				<path id="XMLID_4005_" class="st18" d="M129.4,269.6l13.1-7.6c0.2-0.1,0.4,0,0.4,0.2l0,0.1c0,0.2-0.1,0.5-0.3,0.6l-13.1,7.6
					c-0.2,0.1-0.4,0-0.4-0.2l0-0.1C129.1,270,129.2,269.7,129.4,269.6z"/>
				<path id="XMLID_4004_" class="st18" d="M129.7,274.6l13.1-7.6c0.2-0.1,0.4,0,0.4,0.2l0,0.1c0,0.2-0.1,0.5-0.3,0.6l-13.1,7.6
					c-0.2,0.1-0.4,0-0.4-0.2l0-0.1C129.4,275,129.5,274.8,129.7,274.6z"/>
				<path id="XMLID_4003_" class="st18" d="M129.9,277.2l13.1-7.6c0.2-0.1,0.4,0,0.4,0.2l0,0.1c0,0.2-0.1,0.5-0.3,0.6l-13.1,7.6
					c-0.2,0.1-0.4,0-0.4-0.2l0-0.1C129.5,277.6,129.7,277.3,129.9,277.2z"/>
				<path id="XMLID_4002_" class="st18" d="M130,279.7l13.1-7.6c0.2-0.1,0.4,0,0.4,0.2l0,0.1c0,0.2-0.1,0.5-0.3,0.6l-13.1,7.6
					c-0.2,0.1-0.4,0-0.4-0.2l0-0.1C129.7,280.1,129.8,279.8,130,279.7z"/>
				<path id="XMLID_3987_" class="st18" d="M130.2,282.3l13.1-7.6c0.2-0.1,0.4,0,0.4,0.2l0,0.1c0,0.2-0.1,0.5-0.3,0.6l-13.1,7.6
					c-0.2,0.1-0.4,0-0.4-0.2l0-0.1C129.8,282.7,130,282.4,130.2,282.3z"/>
				<path id="XMLID_3986_" class="st18" d="M130.3,284.8l13.1-7.6c0.2-0.1,0.4,0,0.4,0.2l0,0.1c0,0.2-0.1,0.5-0.3,0.6l-13.1,7.6
					c-0.2,0.1-0.4,0-0.4-0.2l0-0.1C130,285.2,130.1,284.9,130.3,284.8z"/>
			</g>
			<g id="XMLID_3883_">
				<g id="XMLID_3904_">
					<polygon id="XMLID_3984_" class="st17" points="128.7,261.7 134,258.7 134.3,265.1 129,268.1 					"/>
				</g>
				<path class="st16" d="M129.5,262.4l0.1,1.9l0.2-0.1l0-0.6c0-0.3,0.2-0.7,0.5-0.9l0.8-0.4l0.2,2.8c0,0.4-0.2,0.8-0.5,1l-0.5,0.3
					l0,0.2l2.7-1.5l0-0.2c0,0-0.2,0.1-0.5,0.3c-0.3,0.2-0.5,0-0.5-0.4l-0.2-2.8l0.8-0.4c0.3-0.2,0.6-0.1,0.6,0.3c0,0.3,0,0.6,0,0.6
					l0.2-0.1l-0.1-1.9L129.5,262.4z"/>
			</g>
		</g>
		<g id="Document_8_">
			<path id="XMLID_4092_" class="st15" d="M135.1,294.9c-0.2-0.1-0.4-0.5-0.4-0.7l-1.8-29.1c0-0.3,0.2-0.6,0.4-0.7l18.1-10.4
				c0.2-0.1,0.6-0.1,0.8,0c0.2,0.1,0.4,0.5,0.4,0.7l1.8,29.1c0,0.3-0.2,0.6-0.4,0.7l-18.1,10.4C135.7,295,135.3,295,135.1,294.9z"/>
			<g id="XMLID_4077_">
				<path class="st16" d="M133.9,265.5c0-0.2,0.1-0.4,0.3-0.5l18.1-10.4l1.8,29.2c0,0.2-0.1,0.4-0.3,0.5l-18.1,10.4l0,0L133.9,265.5
					z"/>
				<path class="st20" d="M152.1,255l1.8,28.8c0,0.1-0.1,0.2-0.1,0.3l-17.8,10.2l-1.8-28.8c0-0.1,0.1-0.2,0.1-0.3L152.1,255
					 M152.4,254.4c-0.1,0-0.1,0-0.2,0.1l-18.1,10.4c-0.2,0.1-0.4,0.5-0.4,0.7l1.8,29.1c0,0.2,0.1,0.3,0.3,0.3c0.1,0,0.1,0,0.2-0.1
					l18.1-10.4c0.2-0.1,0.4-0.5,0.4-0.7l-1.8-29.1C152.6,254.5,152.5,254.4,152.4,254.4L152.4,254.4z"/>
			</g>
			<path id="XMLID_4076_" class="st18" d="M135.9,294.9c-0.2,0.1-0.6,0.1-0.8,0c-0.2-0.1-0.4-0.5-0.4-0.7l-1.8-29.1
				c0-0.1,0-0.3,0.1-0.4l0.8,0.5c-0.1,0.1-0.1,0.3-0.1,0.4l1.8,29.1C135.5,294.9,135.7,295,135.9,294.9z"/>
			<g>
				<path id="XMLID_4074_" class="st18" d="M143.2,262.5l6.4-3.7c0.2-0.1,0.4,0,0.4,0.2l0,0.1c0,0.2-0.1,0.5-0.3,0.6l-6.4,3.7
					c-0.2,0.1-0.4,0-0.4-0.2l0-0.1C142.9,262.9,143,262.6,143.2,262.5z"/>
				<path id="XMLID_4069_" class="st18" d="M143.4,265l6.4-3.7c0.2-0.1,0.4,0,0.4,0.2l0,0.1c0,0.2-0.1,0.5-0.3,0.6l-6.4,3.7
					c-0.2,0.1-0.4,0-0.4-0.2l0-0.1C143,265.4,143.2,265.1,143.4,265z"/>
				<path id="XMLID_4066_" class="st18" d="M143.5,267.5l6.4-3.7c0.2-0.1,0.4,0,0.4,0.2l0,0.1c0,0.2-0.1,0.5-0.3,0.6l-6.4,3.7
					c-0.2,0.1-0.4,0-0.4-0.2l0-0.1C143.2,267.9,143.3,267.6,143.5,267.5z"/>
				<path id="XMLID_4059_" class="st18" d="M137.1,276.4l13.1-7.6c0.2-0.1,0.4,0,0.4,0.2l0,0.1c0,0.2-0.1,0.5-0.3,0.6l-13.1,7.6
					c-0.2,0.1-0.4,0-0.4-0.2l0-0.1C136.7,276.8,136.9,276.6,137.1,276.4z"/>
				<path id="XMLID_4058_" class="st18" d="M136.9,273.9l13.1-7.6c0.2-0.1,0.4,0,0.4,0.2l0,0.1c0,0.2-0.1,0.5-0.3,0.6l-13.1,7.6
					c-0.2,0.1-0.4,0-0.4-0.2l0-0.1C136.6,274.3,136.7,274,136.9,273.9z"/>
				<path id="XMLID_4057_" class="st18" d="M137.2,279l13.1-7.6c0.2-0.1,0.4,0,0.4,0.2l0,0.1c0,0.2-0.1,0.5-0.3,0.6l-13.1,7.6
					c-0.2,0.1-0.4,0-0.4-0.2l0-0.1C136.9,279.4,137,279.1,137.2,279z"/>
				<path id="XMLID_4054_" class="st18" d="M137.4,281.5l13.1-7.6c0.2-0.1,0.4,0,0.4,0.2l0,0.1c0,0.2-0.1,0.5-0.3,0.6l-13.1,7.6
					c-0.2,0.1-0.4,0-0.4-0.2l0-0.1C137,281.9,137.2,281.6,137.4,281.5z"/>
				<path id="XMLID_4053_" class="st18" d="M137.6,284.1l13.1-7.6c0.2-0.1,0.4,0,0.4,0.2l0,0.1c0,0.2-0.1,0.5-0.3,0.6l-13.1,7.6
					c-0.2,0.1-0.4,0-0.4-0.2l0-0.1C137.2,284.5,137.4,284.2,137.6,284.1z"/>
				<path id="XMLID_4052_" class="st18" d="M137.7,286.6l13.1-7.6c0.2-0.1,0.4,0,0.4,0.2l0,0.1c0,0.2-0.1,0.5-0.3,0.6l-13.1,7.6
					c-0.2,0.1-0.4,0-0.4-0.2l0-0.1C137.4,287,137.5,286.7,137.7,286.6z"/>
				<path id="XMLID_4051_" class="st18" d="M137.9,289.1l13.1-7.6c0.2-0.1,0.4,0,0.4,0.2l0,0.1c0,0.2-0.1,0.5-0.3,0.6l-13.1,7.6
					c-0.2,0.1-0.4,0-0.4-0.2l0-0.1C137.5,289.5,137.7,289.2,137.9,289.1z"/>
			</g>
			<g id="XMLID_4044_">
				<g id="XMLID_4045_">
					<polygon id="XMLID_4047_" class="st17" points="136.2,266.1 141.5,263.1 141.9,269.4 136.6,272.4 					"/>
				</g>
				<path class="st16" d="M137,266.7l0.1,1.9l0.2-0.1l0-0.6c0-0.3,0.2-0.7,0.5-0.9l0.8-0.4l0.2,2.8c0,0.4-0.2,0.8-0.5,1l-0.5,0.3
					l0,0.2l2.7-1.5l0-0.2c0,0-0.2,0.1-0.5,0.3c-0.3,0.2-0.5,0-0.5-0.4l-0.2-2.8l0.8-0.4c0.3-0.2,0.6-0.1,0.6,0.3c0,0.3,0,0.6,0,0.6
					l0.2-0.1l-0.1-1.9L137,266.7z"/>
			</g>
		</g>
		<g>
			<g>
				<polygon id="XMLID_1319_" class="st3" points="138.8,284.1 138.8,300.6 115,286.8 115,270.3 				"/>
				<polygon id="XMLID_1318_" class="st29" points="138.8,284.1 138.8,300.6 115,286.8 115,270.3 				"/>
			</g>
			<g>
				<polygon id="XMLID_1315_" class="st3" points="159.9,288.4 159.9,271.9 138.8,284.1 138.8,300.6 				"/>
				<polygon id="XMLID_1314_" class="st26" points="159.9,288.4 159.9,271.9 138.8,284.1 138.8,300.6 				"/>
				<polygon class="st30" points="159.9,271.9 138.8,284.1 138.8,300.6 139.2,284.4 				"/>
			</g>
			<g>
				<polygon id="XMLID_1311_" class="st3" points="138.8,284.1 140.7,276.1 161.7,264 159.9,271.9 				"/>
				<polygon id="XMLID_1310_" class="st31" points="138.8,284.1 140.7,276.1 161.7,264 159.9,271.9 				"/>
			</g>
			<g>
				<polygon id="XMLID_1307_" class="st3" points="115,270.3 110,263.4 133.8,277.2 138.8,284.1 				"/>
				<polygon id="XMLID_1306_" class="st32" points="115,270.3 110,263.4 133.8,277.2 138.8,284.1 				"/>
				<polygon class="st30" points="110,263.4 133.8,277.2 138.8,284.1 133.5,277.5 				"/>
			</g>
		</g>
		<g>
			<g id="XMLID_1265_" class="st33">
				<g id="XMLID_1293_">
					<g id="XMLID_1296_">
						<path id="XMLID_1297_" class="st5" d="M145,295.7c-0.1,0-0.1-0.1-0.1-0.1v-2.9c0-0.1,0.1-0.1,0.1-0.1c0.1,0,0.1,0.1,0.1,0.1
							v2.9C145.1,295.6,145.1,295.7,145,295.7z"/>
					</g>
					<g id="XMLID_1294_">
						<path id="XMLID_1295_" class="st5" d="M144.6,293.7C144.6,293.7,144.6,293.7,144.6,293.7c-0.1,0-0.1-0.1-0.1-0.2l0.5-1.1
							l0.5,0.6c0,0.1,0,0.1,0,0.2c-0.1,0-0.1,0-0.2,0l-0.2-0.3l-0.3,0.7C144.7,293.6,144.7,293.7,144.6,293.7z"/>
					</g>
				</g>
				<g id="XMLID_1266_">
					<g id="XMLID_1291_">
						<path id="XMLID_1292_" class="st5" d="M146.2,295c-0.1,0-0.1-0.1-0.1-0.1V292c0-0.1,0.1-0.1,0.1-0.1c0.1,0,0.1,0.1,0.1,0.1
							v2.9C146.3,294.9,146.3,295,146.2,295z"/>
					</g>
					<g id="XMLID_1267_">
						<path id="XMLID_1290_" class="st5" d="M145.8,293C145.8,293,145.8,293,145.8,293c-0.1,0-0.1-0.1-0.1-0.2l0.5-1.1l0.5,0.6
							c0,0.1,0,0.1,0,0.2c-0.1,0-0.1,0-0.2,0l-0.2-0.3l-0.3,0.7C145.9,292.9,145.9,293,145.8,293z"/>
					</g>
				</g>
			</g>
			<g id="XMLID_723_" class="st33">
				<g id="XMLID_1263_">
					<path id="XMLID_1264_" class="st5" d="M141.5,297.7c-0.1,0-0.1,0-0.1,0c-0.1-0.1-0.2-0.2-0.2-0.3V297c0-0.1,0.1-0.1,0.1-0.1
						c0.1,0,0.1,0.1,0.1,0.1v0.4c0,0.1,0,0.1,0,0.1c0,0,0,0,0.1,0c0.1-0.1,0.2-0.3,0.2-0.6v-1.5c0-0.1,0.1-0.1,0.1-0.1
						c0.1,0,0.1,0.1,0.1,0.1v1.5c0,0.3-0.2,0.7-0.4,0.8C141.7,297.6,141.6,297.7,141.5,297.7z"/>
				</g>
				<g id="XMLID_724_">
					<path id="XMLID_736_" class="st5" d="M140.2,296.5v-0.2c0-1.1,0.7-2.3,1.7-2.9c0.5-0.3,0.9-0.3,1.3-0.1
						c0.3,0.2,0.5,0.6,0.5,1.1v0.1L140.2,296.5z M142.6,293.4c-0.2,0-0.4,0.1-0.6,0.2c-0.8,0.4-1.4,1.5-1.5,2.4l2.9-1.7
						c0-0.4-0.2-0.7-0.4-0.8C142.8,293.4,142.7,293.4,142.6,293.4z"/>
				</g>
			</g>
		</g>
	</g>
</g>
<g id="Character_1_">
	<g id="Character_2_">
		<g id="XMLID_90_">
			<g>
				<path class="st3" d="M210.3,265.4c-0.2,0-0.2,0.5-0.1,0.7c0.1,0.2,0.7,1,2,1.3c1.2,0.3,3,0.1,3.7,0.1c0.7,0,2,0.4,2.7,0.5
					c0.7,0.1,2.1-0.1,2.5-0.5c0.2-0.2,0.2-0.4,0.2-0.6c0-0.5,0-0.6-0.1-0.6L210.3,265.4z"/>
				<g id="XMLID_95_">
					<g id="XMLID_106_">
						<path id="XMLID_115_" class="st3" d="M221.1,264.9c0,0.1,0,0.2,0.1,0.3c0.1,0.5,0.1,1,0,1.5c-0.2,0.4-0.6,0.5-0.9,0.6
							c-0.9,0.2-1.6,0.2-2.5-0.1c-0.6-0.1-1.2-0.3-1.9-0.3c-0.8,0-1.8,0.1-2.6,0c-0.7-0.1-1.3-0.2-1.9-0.5c-0.5-0.2-0.8-0.5-1.1-1.1
							c0-1,0.5-1.4,1-1.7c0.6-0.3,1.3-0.4,1.9-0.3c0.7,0,1.3,0.1,1.9,0.1c0.4,0,0.9-0.1,1.3-0.3c0.2-0.1,0.3-0.4,0.4-0.6
							c0.1-0.2,0.2-0.4,0.4-0.4c0,0,3,0.1,3.3,0.1c0.4,0,0.4,1.3,0.4,1.5c0,0.2,0,0.4,0.1,0.6C221,264.7,221.1,264.8,221.1,264.9z"
							/>
					</g>
				</g>
				<path class="st3" d="M214.6,263.5c0,0-0.1-0.1-0.2-0.1c-0.3-0.1-0.5,0.2-0.7,0.4c-0.1,0.1-0.1,0.3-0.2,0.4
					c-0.1,0.2-0.1,0.4,0,0.6c0,0,0,0.1,0.1,0.1c0,0,0.1-0.1,0.1-0.1c0-0.3,0.1-0.5,0.2-0.8c0.1-0.1,0.1-0.2,0.2-0.3
					c0.1-0.1,0.2-0.1,0.3-0.2C214.5,263.6,214.7,263.6,214.6,263.5C214.6,263.5,214.6,263.5,214.6,263.5
					C214.6,263.5,214.6,263.5,214.6,263.5z"/>
				<path class="st3" d="M215.4,263.5c-0.1,0-0.3,0-0.4,0.1c-0.1,0.1-0.2,0.2-0.2,0.4c-0.1,0.3-0.2,0.7-0.1,1c0.1,0.1,0.1,0,0.2,0
					c0-0.1,0-0.2,0-0.3c0-0.2,0.1-0.4,0.2-0.6c0-0.1,0.1-0.2,0.1-0.2c0,0,0.1-0.1,0.1-0.1C215.4,263.6,215.5,263.6,215.4,263.5
					c0.1,0.1,0.1,0.1,0.1,0.1C215.6,263.6,215.5,263.5,215.4,263.5C215.5,263.5,215.4,263.5,215.4,263.5z"/>
				<path class="st3" d="M216.3,263.3c-0.1,0-0.2,0.1-0.3,0.2c-0.1,0.1-0.1,0.2-0.1,0.3c-0.1,0.2-0.1,0.4-0.1,0.6
					c0,0.2,0,0.3,0.1,0.4c0,0.1,0.1,0.1,0.1,0.1c0.1,0,0.1-0.1,0.1-0.2c0-0.1,0-0.2,0-0.3c0-0.4,0.2-0.7,0.4-1c0,0,0,0,0-0.1
					c0,0,0,0-0.1,0C216.4,263.3,216.3,263.3,216.3,263.3z"/>
				<path class="st3" d="M213.7,263.5c-0.3,0-0.9,0.4-1.3,1.3c-0.3,0.9-0.2,2.1-0.2,2.1s-0.9-0.1-1.6-0.8c-0.2-0.2-0.3-0.4-0.4-0.5
					c-0.1-0.6,0.1-1.1,0.4-1.4c0.5-0.5,1.1-0.8,2.2-0.8c1.2,0,1.3,0.3,1.3,0.3L213.7,263.5z"/>
			</g>
			<path id="XMLID_92_" class="st34" d="M220.7,260.4c0,0-0.1,1.6-0.2,2.3c-0.1,0.4-0.5,1-1.7,1c-0.9,0-1.4-0.5-1.5-1
				c-0.1-0.4-0.1-2.8-0.1-2.8L220.7,260.4z"/>
		</g>
		<g>
			<path class="st34" d="M242.1,256.6l-1.9-4.7l-4.1,1.4c0,0,2.9,4.1,3.2,4.6C239.8,258.7,242.1,256.6,242.1,256.6z"/>
			<g>
				<path id="XMLID_88_" class="st3" d="M243.9,257.9c0,0.2,0,0.4,0,0.6c0,0.7-0.1,1.3-0.1,2c0,0.3,0,0.5-0.1,0.8
					c-0.1,0.3,0,0.6,0,0.9c0,0.3,0,0.7,0,1c0,0.1,0,0.3,0,0.4c0,0.1-2.1,1.3-2.9,1.8c0,0-0.1,0-0.2,0.1c-0.8,0.3-1.4-0.3-1.4-0.3
					c-0.6-1.6,0.6-2.6,0.6-2.6s0.1,0,0.1-0.8c0-0.6,0-1.2-0.1-1.8c0-0.4-0.1-0.7-0.3-1.1c-0.1-0.3-0.4-0.6-0.4-1
					c0-0.3,0.2-0.5,0.3-0.7c0.1-0.2,0.3-0.4,0.5-0.6c0.4-0.4,0.9-0.6,1.5-0.7c0.1,0,0.2,0,0.3,0c0.2,0.1,0.3,0.2,0.4,0.4
					c0.3,0.3,0.6,0.5,0.9,0.7c0.3,0.2,0.7,0.5,0.8,0.9C243.9,257.8,243.9,257.9,243.9,257.9z"/>
				<path id="XMLID_86_" class="st3" d="M239.8,262.5c-0.1,0.1-0.2,0.3-0.3,0.4h0c-0.4,0.6-0.5,1.4-0.3,2.2c-1.5-0.1-1.9-1-1.9-1
					s-0.1-0.7,0.8-1.3c0.1-0.1,0.2-0.1,0.3-0.2c0,0,0,0,0,0C239.1,262.3,239.8,262.5,239.8,262.5z"/>
				<path id="XMLID_84_" class="st3" d="M244.3,258.1c0.4,0.2,0.3,1.2,0,2.2c-0.2,1-0.4,1.4-0.3,2.2c0.1,0.9,0.2,1.2-0.2,1.6
					s-3.1,1.6-3.1,1.6s0.5-1.3,0.6-3.2c0.1-1.9,0.2-3.1,1.1-4C243.4,257.7,244.3,258.1,244.3,258.1z"/>
				<path id="XMLID_79_" class="st31" d="M244.3,258.1c0.4,0.2,0.3,1.2,0,2.2c-0.2,1-0.4,1.4-0.3,2.2c0.1,0.9,0.2,1.2-0.2,1.6
					s-3.1,1.6-3.1,1.6s0.5-1.3,0.6-3.2c0.1-1.9,0.2-3.1,1.1-4C243.4,257.7,244.3,258.1,244.3,258.1z"/>
				<path id="XMLID_77_" class="st3" d="M237.3,264.1c0,0,1.1,0.9,2.3,1c1.2,0.1,1.3-0.3,1.4-1.8c0.1-1.5,0.2-3.5,0.8-4.4
					c0.6-0.9,1.5-1.3,1.9-1.2c0.1,0,0.5,0.2,0.6,0.4c0,0-0.8-0.1-1.6,0.6c-0.8,0.8-0.9,2.4-0.9,3.8c0,1.5-0.1,3.1-1.3,3.3
					c-1.2,0.2-2.4-0.3-3.1-1C236.9,264.6,237.3,264.1,237.3,264.1z"/>
				<g>
					<path id="XMLID_72_" class="st3" d="M239.9,262c0,0-0.2,0.1-0.2,0.3c0,0.2,0.1,0.6,0.4,0.8c0.2,0.1,0.3,0.1,0-0.3
						C239.9,262.4,239.9,262,239.9,262z"/>
					<path id="XMLID_71_" class="st3" d="M239.8,261c0,0-0.1,0.1-0.1,0.2c0,0.1,0.2,0.7,0.5,0.8c0.3,0.1,0.1-0.2,0-0.3
						C240.1,261.5,239.8,261,239.8,261z"/>
					<path id="XMLID_70_" class="st3" d="M239.8,259.8c0,0-0.1,0.1-0.1,0.2c0,0.1,0.6,0.5,0.7,0.5c0.2,0,0.2-0.1,0-0.2
						C240.1,260.2,239.8,259.8,239.8,259.8z"/>
				</g>
			</g>
		</g>
		<path id="XMLID_69_" class="st9" d="M237.4,255.5c0,0-9-13.4-9.2-14.4c-0.3-1-2-11.9-2-11.9l-3.5,12.8c0.2,0.9,0.3,2.5,0.3,3.6
			c0,1.4-0.2,3.8-0.7,6.3c-0.9,4.4-1.5,8.6-1.5,8.6c-0.3,0.2-1.1,0.5-1.9,0.4c-1.1,0-1.9-0.5-1.9-0.5s-0.5-11.9-0.6-14.7
			c-0.1-2.7-0.2-4-0.1-5.8c0.2-2.5,0.3-5,0.8-10.3c0.4-4.7,1.3-14.6,1.3-14.6l14.4-1c0,0,1.2,2.3,1.4,8.3c0.1,4.7,0.1,17.4,0.1,17.4
			c2.1,1.3,2.8,2.7,3.8,5.3c0.6,1.7,2.3,6.8,2.8,8.3C239.1,253.9,237.4,255.5,237.4,255.5z"/>
		<g id="XMLID_44_">
			<g id="XMLID_49_">
				<path id="XMLID_68_" class="st35" d="M196.4,221.9l-10.4,3l-2.1,0.6l0,0c-0.3,0.1-0.5-0.1-0.7-0.3c-0.1-0.2-0.1-0.4,0-0.6
					c0,0,0,0,0,0l1.4-1.9l6.3-8.6l2.1,3.1L196.4,221.9z"/>
				<path id="XMLID_67_" class="st34" d="M193.2,217.2l-8.4,6.7l-1.6,1.3c-0.1-0.2-0.1-0.4,0-0.6c0,0,0,0,0,0l1.4-1.9l6.3-8.6
					L193.2,217.2z"/>
				<path id="XMLID_66_" class="st24" d="M186,224.9l-2.1,0.6l0,0c-0.3,0.1-0.5-0.1-0.7-0.3c-0.1-0.2-0.1-0.4,0-0.6c0,0,0,0,0,0
					l1.4-1.9c-0.1,0.5,0,0.9,0.1,1.3C185,224.4,185.4,224.7,186,224.9z"/>
				<path id="XMLID_65_" class="st3" d="M237.7,181.6l-1,0.7l-1.2,0.9l-44.4,30.9c-0.4,1.5,0,3,0.7,4.3c1.1,2,3.1,3.5,4.6,3.5
					l44.1-30.7l2.4-1.6C241.2,190.6,236.2,182.6,237.7,181.6z"/>
				<path id="XMLID_63_" class="st8" d="M237.7,181.6l-1,0.7l-1.2,0.9l-44.4,30.9c-0.4,1.5,0,3,0.7,4.3c1.1,2,3.1,3.5,4.6,3.5
					l44.1-30.7l2.4-1.6C241.2,190.6,236.2,182.6,237.7,181.6z"/>
				<path id="XMLID_62_" class="st3" d="M236.7,182.4l-1.2,0.9l-44.4,30.9c-0.4,1.5,0,3,0.7,4.3l45.7-32.2L236.7,182.4z"/>
				<path id="XMLID_60_" class="st18" d="M233.8,184.3l-2.3,1.6c-0.7,0.4-0.1,2.1,0.9,3.9c1.3,2.3,3.4,4.6,4.3,4.1l1.7-1.2l0.6-0.4
					c-0.9,0.6-3-1.8-4.3-4.1C233.7,186.6,233.2,184.9,233.8,184.3L233.8,184.3C233.8,184.4,233.8,184.4,233.8,184.3z"/>
				<path id="XMLID_58_" class="st16" d="M234.7,188.2c-0.9-1.7-1.5-3.3-0.9-3.8l0,0c0,0,0,0,0.1-0.1l-2.3,1.6
					c-0.7,0.4-0.1,2.1,0.9,3.9L234.7,188.2L234.7,188.2z"/>
				<path id="XMLID_56_" class="st3" d="M233.3,184.7c-1.6,1,3.6,9,5.1,7.9l2.3-1.6c-1.6,1-6.7-6.9-5.1-7.9L233.3,184.7z"/>
				<path id="XMLID_54_" class="st18" d="M237.7,181.6l-2.3,1.6c-1.6,1,3.3,8.7,5,8c0,0,0.1,0,0.1,0l2.3-1.6
					C241.2,190.6,236.2,182.6,237.7,181.6z"/>
				<path id="XMLID_52_" class="st35" d="M247.3,175l-9.6,6.7c-0.7,0.4-0.1,2.1,0.8,3.8c1.3,2.3,3.4,4.7,4.3,4.1c0,0,0,0,0,0
					l9.2-6.4c2.3-1.3,0.4-6-2-7.8C249.1,174.7,248.2,174.5,247.3,175z"/>
				<path id="XMLID_50_" class="st34" d="M247.3,175l-9.6,6.7c-0.7,0.4-0.1,2.1,0.8,3.8l9.7-6.4c0,0-1.2-2.4-0.7-3.4
					c0.5-1,1.5-0.9,2.5-0.3C249.1,174.7,248.2,174.5,247.3,175z"/>
			</g>
			<path id="XMLID_47_" class="st36" d="M235.5,183.2l-2.3,1.6c-0.7,0.4-0.1,2.1,0.9,3.9l2.3-1.6
				C235.4,185.3,234.9,183.6,235.5,183.2z"/>
			<path id="XMLID_45_" class="st16" d="M237.7,181.6l-2.3,1.6c-0.7,0.4-0.1,2.1,0.8,3.9l2.3-1.6
				C237.6,183.8,237.1,182.1,237.7,181.6z"/>
		</g>
		<g>
			<g id="XMLID_41_">
				<g id="XMLID_42_">
					<polygon id="XMLID_43_" class="st34" points="223.2,194.8 223.6,200.1 228.4,199.8 228,193.9 					"/>
				</g>
			</g>
			<g id="XMLID_36_">
				<g id="XMLID_39_">
					<path id="XMLID_40_" class="st35" d="M219.7,188.9c0,0-1.1,1.6-0.9,1.7c0.1,0.2,0.8,0.3,0.8,0.3L219.7,188.9z"/>
				</g>
				<path class="st21" d="M231.2,185c-0.1-0.1-0.3-0.3-0.5-0.4c-0.1-0.1-0.1-0.1-0.2-0.2c-0.3-0.5-0.5-1.1-0.9-1.5
					c-0.4-0.5-0.9-0.8-1.5-1c-1-0.4-2.2-0.5-3.3-0.4c-1.1,0-2.2,0.1-3.3,0c-0.5-0.1-1-0.1-1.5,0.1c-0.6,0.2-0.9,0.9-0.8,1.5
					c0,0.6,0.3,1.2,0.7,1.6c-0.4,0.1-0.7,0.6-0.7,1.1c0,0.5,0.3,0.9,0.6,1.2c0.5,0.6,0.9,1,1.1,1.8c0.2,1.1,1.4,1.7,2.1,2.5
					c0.3,0.3,0.6,0.6,0.8,0.9c0,0,0,0,0,0.1c-0.3,0.1-0.7-0.1-0.7-0.1s-0.1,2.3,1.5,3.1c0,0,1.6,0.4,3.3-0.2c1.1-0.8,2.1-2,2.9-3.4
					C232.1,189.7,233,186.7,231.2,185z"/>
				<g id="XMLID_38_">
					<path class="st34" d="M224.8,191.6c-0.2,0.3-0.5,0.5-0.9,0.5c-0.3,0.1-0.7-0.1-0.7-0.1s-0.1,1.8,1,2.7
						c-0.2,0.1-0.4,0.2-0.6,0.2c-1,0.3-2.8,0.2-3.1-0.2c-0.5-0.5-1.4-1.8-0.9-5.6c0.2-1.5,0.6-2.6,1.1-3.4c0.1,0.5,0.4,1,0.9,1.2
						c-0.3,0.4-0.4,0.9-0.3,1.3c0.1,0.5,0.5,1,0.9,1.4c0,0,0,0,0.1,0.1c0.1,0,0.3,0,0.3,0c0.3-0.5,0.8-1.1,1.7-0.8
						C225.5,189.3,225.5,190.6,224.8,191.6z"/>
				</g>
				<path class="st35" d="M220.6,194.8c0.4,0.2,1.6,0.3,2.6,0.2l0-0.7c0,0-0.5,0.2-1.2,0.4C221.2,194.9,220.6,194.8,220.6,194.8z"/>
				<path id="XMLID_37_" class="st21" d="M222.3,191.1c-0.5-0.2-0.7-0.7-0.5-1.1c0.2-0.5,0.7-0.7,1.2-0.5L222.3,191.1z"/>
			</g>
		</g>
		<path id="XMLID_35_" class="st6" d="M226.2,229.2l1.2-5.2c0,0,2.1,0.1,4.6-1.9c0,0-0.3,1.8-3.9,2.7l-1.2,5.1l0.4,6.3
			C227.3,236.2,226.2,229.3,226.2,229.2z"/>
		<g id="XMLID_32_">
			<path id="XMLID_34_" class="st3" d="M232.4,198.4c-0.5-1.4-1.1-1.9-1.8-2c-0.7-0.1-2.5,0-2.5,0c-0.1,0.8-2.6,1.3-4.8,0.5
				l-2.2,0.3c-2,0.9-2.4,3.2-3.4,5.5c-0.7,1.6-0.4,3.3,1.1,4.6c0,0-0.2,2.8-0.3,4.3c-0.2,2.3-0.3,4.6-0.5,7c0,0,2.2,2,8.9,1.7
				c4.9-0.2,6.7-1.8,7-2.6c-0.3-3.1-1.8-6-2.1-7c-0.4-1.3-0.5-2.3-0.3-3C232.6,203.2,233.1,200.3,232.4,198.4z"/>
			<path id="XMLID_33_" class="st27" d="M232.4,198.4c-0.5-1.4-1.1-1.9-1.8-2c-0.7-0.1-2.5,0-2.5,0c-0.1,0.8-2.6,1.3-4.8,0.5
				l-2.2,0.3c-2,0.9-2.4,3.2-3.4,5.5c-0.7,1.6-0.4,3.3,1.1,4.6c0,0-0.2,2.8-0.3,4.3c-0.2,2.3-0.3,4.6-0.5,7c0,0,2.2,2,8.9,1.7
				c4.9-0.2,6.7-1.8,7-2.6c-0.3-3.1-1.8-6-2.1-7c-0.4-1.3-0.5-2.3-0.3-3C232.6,203.2,233.1,200.3,232.4,198.4z"/>
		</g>
		<path id="XMLID_31_" class="st34" d="M222,197.2c-3.8,0.2-4.1,1-5.8,4.6c-0.9,1.9-2.4,5.7-3.3,7.5c-1.9,0.9-6.4,1.6-8.1,1.2
			c-0.3-0.1-0.7-0.3-0.9-0.5c-0.6-0.8-1.1-0.9-1.8-1.5c-0.5-0.4-0.7-0.8-0.8-0.8c-0.2,0.1-0.5,0.4-0.3,1c0.1,0.3,0.3,0.5,0.6,0.9
			c0,0-0.9-0.3-2-1c-1.4-1-2.3-1-2.2,1.2c0.1,1.4,1,2.5,4.2,3.3c0.9,0.2,2.4,0.6,3.6,0.8c2.9,0.3,7.1-0.1,9.1-0.6
			c0.3-0.1,0.9-0.2,1.7-1.1c1.2-1.3,4-6.8,4-6.8C222.3,202.2,222.5,199.1,222,197.2z"/>
	</g>
</g>
<g id="Speech_Bubble">
	<g id="Speech_Bubble_1_">
		<g id="Speech_Bubble_5_">
			<g>
				<path class="st3" d="M224,170.7c0,0-0.1-0.1-0.1-0.1l-1.5-2.6v-1.4l4.3-1.7v1.4l-0.5,1.5l2.6-1.5l0.2,0.9l-1.5,5
					c-0.1,0.2-0.3,0.3-0.5,0.2C226.9,172.4,224.2,170.8,224,170.7z"/>
				<path class="st31" d="M224,170.7c0,0-0.1-0.1-0.1-0.1l-1.5-2.6v-1.4l4.3-1.7v1.4l-0.5,1.5l2.6-1.5l0.2,0.9l-1.5,5
					c-0.1,0.2-0.3,0.3-0.5,0.2C226.9,172.4,224.2,170.8,224,170.7z"/>
				<path class="st3" d="M228.8,166.4l0.2,0.9l-1.5,5c-0.1,0.3-0.4,0.3-0.6,0.1l-1.7-2.9l0.2-1.1L228.8,166.4z"/>
				<path class="st28" d="M228.8,166.4l0.2,0.9l-1.5,5c-0.1,0.3-0.4,0.3-0.6,0.1l-1.7-2.9l0.2-1.1L228.8,166.4z"/>
			</g>
			<g id="XMLID_3771_">
				<path id="XMLID_3892_" class="st3" d="M234.2,151.8c0-0.9-0.6-2-1.4-2.4l0,0c-0.8-0.4-2-0.4-2.8,0l-13.2,7.6
					c-0.8,0.4-1.4,1.5-1.4,2.4v10.9c0,0.9,0.6,2,1.4,2.4l0,0c0.8,0.4,2,0.4,2.8,0l13.3-7.7c1.3-0.7,1.3-1.4,1.3-2.3L234.2,151.8z"/>
				<path id="XMLID_3834_" class="st28" d="M234.2,151.8c0-0.9-0.6-2-1.4-2.4l0,0c-0.8-0.4-2-0.4-2.8,0l-13.2,7.6
					c-0.8,0.4-1.4,1.5-1.4,2.4v10.9c0,0.9,0.6,2,1.4,2.4l0,0c0.8,0.4,2,0.4,2.8,0l13.3-7.7c1.3-0.7,1.3-1.4,1.3-2.3L234.2,151.8z"/>
				<path id="XMLID_3831_" class="st28" d="M215.4,170.2c0,0.9,0.6,2,1.4,2.4l0,0c0.7,0.4,1.8,0.4,2.6,0.1c-0.7,0.3-1.2-0.1-1.2-0.9
					l0-10.9c0-0.4,0.2-0.9,0.4-1.4l-2.8-1.6c-0.3,0.4-0.4,0.9-0.4,1.4V170.2z"/>
				<path id="XMLID_3830_" class="st3" d="M234.2,151.4c-0.2-0.6-0.7-0.8-1.4-0.4l-13.2,7.6c-0.4,0.2-0.7,0.6-1,1.1l-2.8-1.6
					c0.3-0.4,0.6-0.8,1-1.1l13.2-7.6c0.8-0.4,2-0.4,2.8,0l0,0C233.5,149.8,234,150.6,234.2,151.4z"/>
			</g>
		</g>
		<g>
			<path class="st16" d="M229,160.5c0,0.7,0.5,0.9,1,0.6c0.6-0.3,1-1.1,1-1.8c0-0.7-0.5-0.9-1-0.6C229.5,159,229,159.8,229,160.5z"
				/>
			<path class="st16" d="M225.2,162.7c0,0.7,0.5,0.9,1,0.6c0.6-0.3,1-1.1,1-1.8s-0.5-0.9-1-0.6C225.6,161.2,225.2,162,225.2,162.7z"
				/>
			<path class="st16" d="M221.3,164.9c0,0.7,0.5,0.9,1,0.6c0.6-0.3,1-1.1,1-1.8c0-0.7-0.5-0.9-1-0.6
				C221.8,163.5,221.3,164.3,221.3,164.9z"/>
		</g>
	</g>
</g>
</svg>
