<?xml version="1.0" encoding="utf-8"?>
<!-- Generator: Adobe Illustrator 21.0.0, SVG Export Plug-In . SVG Version: 6.00 Build 0)  -->
<svg version="1.1" xmlns="http://www.w3.org/2000/svg" xmlns:xlink="http://www.w3.org/1999/xlink" x="0px" y="0px"
	 viewBox="0 0 500 500" style="enable-background:new 0 0 500 500;" xml:space="preserve">
<style type="text/css">
	.st0{fill:#CCCCFF;}
	.st1{fill:#B6B6EF;}
	.st2{fill:#9B9BDD;}
	.st3{fill:#B64FC8;}
	.st4{fill:#FFFFFF;}
	.st5{fill:#E3E3FF;}
	.st6{fill:#2A3554;}
	.st7{fill:#5F46F1;}
	.st8{fill:#8380F9;}
	.st9{font-family:'Montserrat-Black';}
	.st10{font-size:43.1183px;}
	.st11{fill:#6D6D6D;}
	.st12{fill:#445279;}
	.st13{fill:#3C3CC2;}
	.st14{fill:#EA80FC;}
	.st15{fill:#161642;}
	.st16{fill:#FA8465;}
	.st17{fill:#FA664D;}
	.st18{fill:#F8AE81;}
</style>
<g id="BACKGROUND">
</g>
<g id="OBJECTS">
	<ellipse class="st0" cx="352.5" cy="345.3" rx="125.4" ry="7.9"/>
	<g>
		<g>
			<g>
				<path class="st1" d="M442.8,237.6l1.3,0.2l0.7,0.1l2,0.4c0,0,24.8-26.4,15.8-38.8c-2.8-3.8-9.4-2.7-11.2,11.7
					C449.6,224.5,442.8,237.6,442.8,237.6z"/>
				<g>
					<path class="st2" d="M444.1,237.9l0.7,0.1c4.8-6.7,8.1-14.2,10.2-19.6c2.4-6.4,3.5-11.2,3.5-11.2c0-0.2-0.1-0.3-0.2-0.4
						c-0.2,0-0.3,0.1-0.4,0.2c0,0-1.1,4.8-3.5,11.1C452.3,223.6,448.9,231.2,444.1,237.9z"/>
				</g>
			</g>
			<g>
				<path class="st0" d="M431.1,250.7l1.6,1.1l0.8,0.6l2.3,1.7c0,0,48.8-19,44.8-40.9c-1.2-6.7-10.6-9.3-21.9,8.3
					C448.2,237.8,431.1,250.7,431.1,250.7z"/>
				<g>
					<path class="st1" d="M432.7,251.8l0.8,0.6c10.4-5.7,19.5-13.5,25.5-19.3c7.1-6.8,11.6-12.4,11.6-12.4c0.2-0.2,0.1-0.5-0.1-0.6
						c-0.2-0.2-0.5-0.1-0.6,0.1c0,0.1-4.5,5.6-11.5,12.4C452.3,238.3,443.1,246.1,432.7,251.8z"/>
				</g>
			</g>
		</g>
		<g>
			<g>
				<path class="st1" d="M265.5,286.4l-1.3,0.2l-0.7,0.1l-2,0.4c0,0-24.8-26.4-15.8-38.8c2.8-3.8,9.4-2.7,11.2,11.7
					C258.7,273.3,265.5,286.4,265.5,286.4z"/>
				<g>
					<path class="st2" d="M264.2,286.6l-0.7,0.1c-4.8-6.7-8.1-14.2-10.2-19.6c-2.4-6.4-3.5-11.2-3.5-11.2c0-0.2,0.1-0.3,0.2-0.4
						c0.2,0,0.3,0.1,0.4,0.2c0,0,1.1,4.8,3.5,11.1C256,272.4,259.4,280,264.2,286.6z"/>
				</g>
			</g>
			<g>
				<path class="st0" d="M277.2,299.5l-1.6,1.1l-0.8,0.6l-2.3,1.7c0,0-48.8-19-44.8-40.9c1.2-6.7,10.6-9.3,21.9,8.3
					C260.1,286.6,277.2,299.5,277.2,299.5z"/>
				<g>
					<path class="st1" d="M275.6,300.6l-0.8,0.6c-10.4-5.7-19.5-13.5-25.5-19.3c-7.1-6.8-11.6-12.4-11.6-12.4
						c-0.2-0.2-0.1-0.5,0.1-0.6c0.2-0.2,0.5-0.1,0.6,0.1c0,0.1,4.5,5.6,11.5,12.4C256,287.1,265.1,294.9,275.6,300.6z"/>
				</g>
			</g>
		</g>
		<g>
			<g>
				<path class="st1" d="M316.3,224.2c-8.8-7-15.9-13.6-21.1-19.4c-6.8-7.7-10.4-14.3-10.6-19.7c0-0.4,0.3-0.7,0.6-0.7
					c0.4,0,0.7,0.3,0.7,0.6c0.4,9.4,12,23.2,33.5,40L316.3,224.2z"/>
			</g>
			<path class="st0" d="M289.7,197.4c0,0-3.6,4-10.4-2.7C279.4,194.7,286.7,190.2,289.7,197.4z"/>
			<path class="st0" d="M293,201c0,0-4.2-3.4,2.1-10.5C295.2,190.5,300,197.5,293,201z"/>
			<path class="st0" d="M286,189c0,0-5.1-1.8-1.5-10.6C284.5,178.4,291.5,183.4,286,189z"/>
			<path class="st0" d="M299.4,208.5c0,0-2.1,5-10.7,1C288.8,209.4,294.1,202.8,299.4,208.5z"/>
			<path class="st0" d="M303.3,211.7c0,0-4.7-2.6,0.3-10.7C303.6,201,309.6,207,303.3,211.7z"/>
			<path class="st0" d="M308.3,216.5c0,0-2,5-10.6,1.2C297.6,217.7,302.8,210.9,308.3,216.5z"/>
		</g>
	</g>
	<g>
		<g>
			<g>
				<path class="st3" d="M452.1,221.9V326c0,4.3-3.5,7.8-7.8,7.8H267c-4.3,0-7.8-3.5-7.8-7.8V221.9c0-4.3,3.5-7.8,7.8-7.8h177.3
					C448.7,214.1,452.1,217.6,452.1,221.9z"/>
				<path class="st4" d="M443.6,227.2v93.5c0,2.8-2.2,5-5,5H272.8c-1.2,0-2.2-0.4-3.1-1.1c-0.2-0.2-0.4-0.4-0.6-0.6
					c-0.8-0.9-1.3-2-1.3-3.3v-93.5c0-2.8,2.2-5,5-5h165.8c0.9,0,1.8,0.2,2.5,0.7c0.7,0.4,1.3,1,1.7,1.7
					C443.3,225.3,443.6,226.2,443.6,227.2z"/>
				<g>
					<g>
						<g>
							<g>
								<rect x="303.9" y="242.4" class="st5" width="106.5" height="60.4"/>
								<rect x="303.9" y="242.4" class="st6" width="106.5" height="5.2"/>
								<g>
									<circle class="st7" cx="399.2" cy="245" r="1.1"/>
									<circle class="st7" cx="402.7" cy="245" r="1.1"/>
									<circle class="st8" cx="406" cy="245" r="1.1"/>
								</g>
							</g>
						</g>
					</g>
					<g>
						<g>
							<g>
								<path class="st6" d="M315.8,299.1c-0.1,0-0.3-0.1-0.3-0.3v-47.7c0-0.1,0.1-0.3,0.3-0.3c0.1,0,0.3,0.1,0.3,0.3v47.7
									C316.1,299,316,299.1,315.8,299.1z"/>
							</g>
						</g>
						<circle class="st6" cx="315.8" cy="251.3" r="0.8"/>
						<circle class="st6" cx="315.8" cy="298.8" r="0.8"/>
					</g>
					<g>
						<g>
							<path class="st6" d="M398.2,299.1c-0.1,0-0.3-0.1-0.3-0.3v-47.7c0-0.1,0.1-0.3,0.3-0.3c0.1,0,0.3,0.1,0.3,0.3v47.7
								C398.4,299,398.3,299.1,398.2,299.1z"/>
						</g>
						<circle class="st6" cx="398.1" cy="251.3" r="0.8"/>
						<circle class="st6" cx="398.1" cy="298.8" r="0.8"/>
					</g>
					<text transform="matrix(1 0 0 1 325.1086 289.8158)" class="st6 st9 st10">Aa</text>
				</g>
				<g>
					<rect x="279.5" y="242.4" class="st5" width="13.3" height="60.1"/>
					<rect x="279.5" y="242.4" class="st6" width="13.3" height="4"/>
				</g>
				<g>
					<rect x="419.3" y="273" class="st5" width="13.3" height="29.6"/>
					<rect x="419.3" y="273" class="st6" width="13.3" height="4.2"/>
				</g>
				<g>
					<rect x="419.6" y="242.7" class="st5" width="13.3" height="17.2"/>
					<rect x="419.6" y="242.7" class="st6" width="13.3" height="4.2"/>
				</g>
			</g>
			<path class="st11" d="M470.2,329.6v0.7c0,3.3-1.1,6.4-2.9,8.9c-2.7,3.8-7.2,6.3-12.3,6.3H256.4c-5.1,0-9.5-2.5-12.3-6.3
				c-1.8-2.5-2.9-5.6-2.9-8.9v-0.7H470.2z"/>
			<path class="st12" d="M330,329.6v0.2c0,1.2,0.8,2.2,1.8,2.2h46.7c1,0,1.8-1,1.8-2.2v-0.2H330z"/>
			<g>
				<path class="st5" d="M443.6,227.2v5.5H267.8v-5.5c0-1.1,0.3-2,0.9-2.9c0.9-1.3,2.4-2.1,4.1-2.1h165.8c1.7,0,3.2,0.8,4.1,2.1
					C443.2,225.1,443.6,226.1,443.6,227.2z"/>
				<g>
					<circle class="st7" cx="428.6" cy="228.2" r="1.4"/>
					<circle class="st7" cx="433.2" cy="228.2" r="1.4"/>
					<circle class="st8" cx="437.6" cy="228.2" r="1.4"/>
				</g>
				<path class="st4" d="M400.8,229.1h-92.6c-0.4,0-0.8-0.3-0.8-0.8v-1.3c0-0.4,0.3-0.8,0.8-0.8h92.6c0.4,0,0.8,0.3,0.8,0.8v1.3
					C401.6,228.8,401.2,229.1,400.8,229.1z"/>
				<path class="st6" d="M285,227.7v1c0,0.3-0.3,0.5-0.6,0.3l-0.9-0.5l-0.9-0.5c-0.3-0.1-0.3-0.5,0-0.7l0.9-0.5l0.9-0.5
					c0.3-0.1,0.6,0,0.6,0.3V227.7z"/>
				<path class="st6" d="M289.7,227.7v1c0,0.3,0.3,0.5,0.6,0.3l0.9-0.5l0.9-0.5c0.3-0.1,0.3-0.5,0-0.7l-0.9-0.5l-0.9-0.5
					c-0.3-0.1-0.6,0-0.6,0.3V227.7z"/>
			</g>
			<path class="st0" d="M442.7,224.3H268.7c0.9-1.3,2.4-2.1,4.1-2.1h165.8C440.3,222.2,441.8,223,442.7,224.3z"/>
			<path class="st5" d="M407.6,317.7H301.4c-2.1,0-3.8-1.7-3.8-3.8l0,0c0-2.1,1.7-3.8,3.8-3.8h106.2c2.1,0,3.8,1.7,3.8,3.8v0
				C411.4,316,409.7,317.7,407.6,317.7z"/>
		</g>
	</g>
	<g>
		<ellipse class="st0" cx="430.3" cy="373.5" rx="26.7" ry="3.5"/>
		<g>
			<g>
				<g>
					<g>
						<path class="st7" d="M451.4,335.2H411c0.7-4,3.9-7,7.6-7l12.6,0l12.6,0C447.5,328.2,450.7,331.2,451.4,335.2z"/>
					</g>
					<g>
						<rect x="414.2" y="334.6" class="st7" width="2.2" height="37.6"/>
						<rect x="446" y="334.6" class="st7" width="2.2" height="37.6"/>
						<rect x="416.4" y="345.2" class="st13" width="29.6" height="2.1"/>
					</g>
				</g>
				<g>
					<path class="st8" d="M421.3,284.6c0,0-6.7,9-7.6,16.8c-0.6,5.5,7.6,13.8,7.6,13.8l2.8-1.4l-2.8-6.4c-1-3.1-2.3-4.4-1.3-7.5
						l2.1-4.4C422.3,292.1,421.9,288.4,421.3,284.6z"/>
					<path class="st8" d="M442.6,284.4c0,0,6.7,9.6,7.2,17.5c0.5,6.8-7.7,13.3-7.7,13.3l-2.4-1.2l3.3-6.5c1-3.1,1.5-5,0.1-8.4
						l-1.7-3.7L442.6,284.4z"/>
					<g>
						<path class="st8" d="M443.5,320.1c-5.9,1.6-25.3-0.9-25.3-0.9l4.5-14.2l-0.6-8.4l-0.1-1.1l-0.7-10.9c4.7-1.9,7.6-2.7,12.1-2.4
							c3.1,0.2,6.2,1,9.1,2.2l-2.1,20.2L443.5,320.1z"/>
						<g>
							<path class="st7" d="M427.5,288.9c4.3-0.5,8.2-3.4,8.4-3.6c0.1-0.1,0.1-0.2,0-0.3c-0.1-0.1-0.2-0.1-0.3,0
								c0,0-4.7,3.5-9.2,3.5c-0.1,0-0.2,0.1-0.2,0.2c0,0.1,0.1,0.2,0.2,0.2C426.8,288.9,427.2,288.9,427.5,288.9z"/>
						</g>
						<g>
							<path class="st7" d="M429.8,303.4c4-1.4,7.3-5.2,7.4-5.4c0.1-0.1,0.1-0.3,0-0.3c-0.1-0.1-0.3-0.1-0.3,0c0,0-3.8,4.4-8.2,5.5
								c-0.1,0-0.2,0.2-0.2,0.3c0,0.1,0.2,0.2,0.3,0.2C429.1,303.7,429.5,303.6,429.8,303.4z"/>
						</g>
					</g>
					<g>
						<polygon class="st3" points="431,365 431.3,368.1 434.6,368.2 434.9,365.6 						"/>
						<g>
							<path class="st3" d="M430.4,315.3c0,0-8.6-0.5-11.6,1.9c-2.9,2.4-2.3,9.3,0.6,11.1c3,1.9,8.1,5.6,8.1,5.6l3.2,32.1l4.3,0.1
								c0,0,3.9-32.3,1.9-38.5C435,321.4,430.4,315.3,430.4,315.3z"/>
							<path class="st3" d="M435.5,364.6c0.2,0.8,0.1,1.5-0.1,2.2l-4.9-0.1c-0.2-0.7-0.2-1.4-0.1-2.2L435.5,364.6z"/>
						</g>
					</g>
					<g>
						<path class="st4" d="M442.7,315H420l-2.1-12.3c-0.2-1.1,0.6-2,1.7-2h23.4c1.1,0,1.9,1,1.7,2L442.7,315z"/>
						<path class="st0" d="M440,317.7h-17.4c-1.5,0-2.7-1.2-2.7-2.7v0h22.7l0,0C442.7,316.5,441.5,317.7,440,317.7z"/>
						<circle class="st0" cx="431.4" cy="308.4" r="2"/>
					</g>
					<g>
						<polygon class="st14" points="416.8,356.2 416,359.3 419,359.9 420.3,357.1 						"/>
						<g>
							<path class="st14" d="M434.8,314.7c0,0-5.8-2-9.2,2.2c-3.4,4.2-9.1,39.6-9.1,39.6l3.9,1.6l12.5-31.4c0,0,10.2,5.8,11.4-2.5
								C445.4,317.7,434.8,314.7,434.8,314.7z"/>
							<path class="st14" d="M421.4,356.5c0,0.8-0.4,1.5-0.8,2.1l-4.8-1.7c0.1-0.8,0.3-1.5,0.6-2.1L421.4,356.5z"/>
						</g>
					</g>
					<g>
						<path class="st8" d="M418.3,358.8c0,0-1.8-0.9-2.3-1c-0.5-0.1-4.9,3-6.2,3c-2.3-0.1-3,3.3-1.7,3.7c3.7,1.3,10.6,1.1,10.6,1.1
							s1.5-4.1,1.6-5.5C420.3,358.7,419.3,359.4,418.3,358.8z"/>
						<g>
							<g>
								<path class="st4" d="M414.4,361.7c0.1,0,0.1,0,0.2,0c0.1-0.1,0.2-0.2,0.2-0.3c0,0-0.5-1.1-1.2-1.6c-1-0.7-1.9-0.2-1.9-0.2
									c-0.1,0.1-0.2,0.2-0.1,0.4c0.1,0.1,0.2,0.2,0.4,0.1c0,0,0.6-0.3,1.3,0.2c0.6,0.4,1,1.4,1,1.4
									C414.3,361.7,414.3,361.7,414.4,361.7z"/>
							</g>
							<g>
								<path class="st4" d="M415.3,361.1c0.1,0,0.1,0,0.2,0c0.1-0.1,0.2-0.2,0.2-0.3c0,0-0.5-1.1-1.2-1.6c-1-0.7-1.9-0.2-1.9-0.2
									c-0.1,0.1-0.2,0.2-0.1,0.4c0.1,0.1,0.2,0.2,0.4,0.1c0,0,0.6-0.3,1.3,0.2c0.6,0.4,1,1.4,1,1.4
									C415.2,361,415.2,361.1,415.3,361.1z"/>
							</g>
							<g>
								<path class="st4" d="M413.2,362.2c0.1,0,0.1,0,0.2,0c0.1-0.1,0.2-0.2,0.2-0.3c0,0-0.5-1.1-1.2-1.6c-1-0.7-1.9-0.2-1.9-0.2
									c-0.1,0.1-0.2,0.2-0.1,0.4c0.1,0.1,0.2,0.2,0.4,0.1c0,0,0.6-0.3,1.3,0.2c0.6,0.4,1,1.4,1,1.4
									C413.1,362.1,413.1,362.2,413.2,362.2z"/>
							</g>
						</g>
					</g>
					<g>
						<path class="st8" d="M432.6,368c0,0,1.9-0.6,2.4-0.6c0.5,0,4.1,3.7,5.3,3.8c2.1,0.3,2.3,3.6,1,3.8c-3.7,0.6-10.2-0.7-10.2-0.7
							s-0.8-4.1-0.5-5.5C430.8,367.6,431.6,368.4,432.6,368z"/>
						<g>
							<g>
								<path class="st4" d="M435.8,371.4c-0.1,0-0.1,0-0.2,0c-0.1-0.1-0.2-0.2-0.1-0.3c0,0,0.6-1,1.4-1.3c1-0.5,1.8,0.1,1.8,0.1
									c0.1,0.1,0.1,0.2,0,0.4c-0.1,0.1-0.3,0.1-0.4,0c0,0-0.6-0.4-1.3-0.1c-0.6,0.3-1.2,1.1-1.2,1.1
									C435.9,371.4,435.9,371.4,435.8,371.4z"/>
							</g>
							<g>
								<path class="st4" d="M435.1,370.7c-0.1,0-0.1,0-0.2,0c-0.1-0.1-0.2-0.2-0.1-0.3c0,0,0.6-1,1.4-1.3c1-0.5,1.8,0.1,1.8,0.1
									c0.1,0.1,0.1,0.2,0,0.4c-0.1,0.1-0.3,0.1-0.4,0c0,0-0.6-0.4-1.3-0.1c-0.6,0.3-1.2,1.1-1.2,1.1
									C435.2,370.7,435.1,370.7,435.1,370.7z"/>
							</g>
							<g>
								<path class="st4" d="M436.9,372.1c-0.1,0-0.1,0-0.2,0c-0.1-0.1-0.2-0.2-0.1-0.3c0,0,0.6-1,1.4-1.3c1-0.5,1.8,0.1,1.8,0.1
									c0.1,0.1,0.1,0.2,0,0.4c-0.1,0.1-0.3,0.1-0.4,0c0,0-0.6-0.4-1.3-0.1c-0.6,0.3-1.2,1.1-1.2,1.1
									C437,372,436.9,372,436.9,372.1z"/>
							</g>
						</g>
					</g>
					<g>
						<path class="st6" d="M437.6,264.3c0,0,2.8,4.3,2.4,8.7c-0.3,4.4,0.4,9.6-3.6,9.3c-4-0.2-11.1,1.6-13.3-1.9
							C421,277,437.6,264.3,437.6,264.3z"/>
						<path class="st15" d="M438.7,272.1c0,0,0.7,6.4-2.3,8.2c-3.1,1.8-5.3-0.2-5.3-0.2S437.5,271.2,438.7,272.1z"/>
						<g>
							<g>
								<path class="st16" d="M426,272.1c0,0-1.1-1.5-1.9-0.3c-0.8,1.2,0.3,4.8,2.3,3.9L426,272.1z"/>
								<g>
									<path class="st17" d="M426,274.7c-0.1,0-0.1,0-0.2-0.1c-0.3-1.1-1.5-1.5-1.5-1.6c-0.1,0-0.1-0.1-0.1-0.2
										c0-0.1,0.1-0.1,0.2-0.1c0.1,0,1.3,0.5,1.7,1.8C426.2,274.5,426.1,274.6,426,274.7C426,274.7,426,274.7,426,274.7z"/>
								</g>
								<g>
									<path class="st17" d="M424.8,274.1C424.8,274.1,424.8,274.1,424.8,274.1c-0.2-0.1-0.2-0.2-0.1-0.3c0,0,0.2-0.3,0.6-0.5
										c0.1,0,0.2,0,0.2,0.1c0,0.1,0,0.2-0.1,0.2c-0.3,0.1-0.5,0.4-0.5,0.4C424.9,274.1,424.9,274.1,424.8,274.1z"/>
								</g>
							</g>
							<g>
								<path class="st16" d="M437.3,272.1c0,0,1.1-1.5,1.9-0.3c0.8,1.2-0.3,4.8-2.3,3.9L437.3,272.1z"/>
								<g>
									<path class="st17" d="M437.3,274.7c0.1,0,0.1,0,0.2-0.1c0.3-1.1,1.5-1.5,1.5-1.6c0.1,0,0.1-0.1,0.1-0.2
										c0-0.1-0.1-0.1-0.2-0.1c-0.1,0-1.3,0.5-1.7,1.8C437.1,274.5,437.2,274.6,437.3,274.7C437.3,274.7,437.3,274.7,437.3,274.7z
										"/>
								</g>
								<g>
									<path class="st17" d="M438.4,274.1C438.5,274.1,438.5,274.1,438.4,274.1c0.2-0.1,0.2-0.2,0.1-0.3c0,0-0.2-0.3-0.6-0.5
										c-0.1,0-0.2,0-0.2,0.1c0,0.1,0,0.2,0.1,0.2c0.3,0.1,0.5,0.4,0.5,0.4C438.3,274.1,438.4,274.1,438.4,274.1z"/>
								</g>
							</g>
							<path class="st18" d="M434.3,278.8v3.5c0,0-1.1,1.8-2.5,1.9c-1.4,0.1-2.7-1.6-2.7-1.6V279L434.3,278.8z"/>
							<path class="st16" d="M434.3,278.8v1.6c-1,1.1-2.7,1.4-5.2,1.1l0-2.4L434.3,278.8z"/>
							<path class="st18" d="M438.1,269.7c-0.1,1.4-0.2,3.1-0.5,4.5c-0.1,0.3-0.1,0.7-0.2,1c-0.7,2.6-2.6,7.1-7.8,5.2
								c-2.3-0.8-3.4-3.4-3.9-6c-0.3-1.8-0.4-3.6-0.3-4.9c0-1.3,0.7-2.5,1.9-3.2c3.1-1.8,6.3-1.1,8.5-0.3
								C437.2,266.6,438.1,268.1,438.1,269.7z"/>
							<ellipse class="st6" cx="428.9" cy="272.7" rx="0.4" ry="0.7"/>
							<ellipse class="st6" cx="434.3" cy="272.7" rx="0.4" ry="0.7"/>
							<path class="st6" d="M428,270.4c0.4-0.1,1.1-0.3,1.9-0.3c0.2,0,0.4,0.2,0.3,0.4l0,0c0,0.2-0.2,0.3-0.3,0.3
								c-0.5,0-1.9,0-2.6,0.3c0-0.1,0.1-0.2,0.1-0.3C427.6,270.5,427.8,270.4,428,270.4z"/>
							<path class="st6" d="M435.1,270.4c-0.4-0.1-1.1-0.3-1.9-0.3c-0.2,0-0.4,0.2-0.3,0.4l0,0c0,0.2,0.2,0.3,0.3,0.3
								c0.5,0,1.9,0,2.6,0.3c0-0.1-0.1-0.2-0.1-0.3C435.5,270.6,435.3,270.4,435.1,270.4z"/>
							<g>
								<path class="st16" d="M431.7,275.4c-0.1,0-0.3,0-0.4-0.1c-0.1-0.1-0.2-0.2-0.2-0.4c-0.1-0.6,0.1-2.6,0.1-2.6
									c0-0.1,0.1-0.2,0.2-0.2c0.1,0,0.2,0.1,0.2,0.2c0,0-0.2,2-0.1,2.6c0,0.1,0.1,0.1,0.1,0.2c0.2,0.1,0.5,0,0.7-0.1
									c0.1,0,0.2,0,0.2,0.1c0,0.1,0,0.2-0.1,0.2C432.3,275.3,432,275.4,431.7,275.4z"/>
							</g>
							<path class="st4" d="M429.5,276.5c0.1,0.6,0.6,1.8,2,1.8c1.4,0,1.8-1.1,2-1.8H429.5z"/>
							<g>
								<path class="st16" d="M431.5,279.3c-0.4,0-0.8-0.2-0.8-0.2c-0.1,0-0.1-0.2-0.1-0.2c0-0.1,0.2-0.1,0.2-0.1l0,0
									c0,0,0.3,0.2,0.6,0.2c0.3,0,0.6-0.2,0.6-0.2c0.1,0,0.2,0,0.2,0.1c0,0.1,0,0.2-0.1,0.2C432.3,279.1,431.9,279.3,431.5,279.3z
									"/>
							</g>
						</g>
						<path class="st6" d="M438.8,269.4c-0.1,0.2-0.2,0.3-0.4,0.3c0,0.4,0,0.8-0.1,1.2c-0.2,2.4-0.8,2.9-1,2.3
							c-0.1-0.4-0.1-2.7,0-3.4c-0.5,0-0.9-0.1-0.9-0.1l-0.6-2.4l-0.2,2.3c-0.8,0.3-2.8-0.2-2.8-0.2l-0.7-2.3l-0.4,2.2
							c-1.3,0.6-2.9,0.2-2.9,0.2l-0.4-2.4l-0.8,2.4c0,0-2.7,1-2.7,0c0-0.6,0.4-2.2,0.7-3.4c0.4-1.3,1.3-2.5,2.5-3.1
							c3.4-1.8,6.9-0.8,8.1-0.1C438.9,264.5,438.8,269.4,438.8,269.4z"/>
						<path class="st6" d="M426.4,264.5c0,0-2.2,2.7-3,7.4c-0.7,4.7-1.8,8.2,1.1,9.8c3.1,1.7,2.8-1.8,2.8-2.7
							c0-0.9-2.7-3.5-0.9-10.8C427,265.8,426.4,264.5,426.4,264.5z"/>
						<path class="st15" d="M425.9,274.3C425.9,274.3,425.9,274.3,425.9,274.3c0,0,0,0.2,0,0.5c0,0.2,0,0.4,0,0.7
							c0.1,1.6,0.4,4.4,1.3,5.3c0.4,0.4,1.1,0.6,1.9,0.6v-1.3c-0.9-0.4-1.5-1.1-2.1-1.9c-0.3-0.7-0.9-1.8-1.1-3.5L425.9,274.3z"/>
						<circle class="st4" cx="437.7" cy="275.8" r="0.4"/>
					</g>
				</g>
			</g>
		</g>
		<g>
			<path class="st7" d="M423.2,294.2c0,0-0.5,1-1,2.4l-0.1-1.1c0.4-0.9,0.6-1.4,0.7-1.5c0.1-0.1,0.2-0.2,0.3-0.1
				C423.2,293.9,423.2,294.1,423.2,294.2z"/>
		</g>
		<g>
			<path class="st7" d="M440.3,294.2c0,0,0.5,1,1,2.4l0.1-1.1c-0.4-0.9-0.7-1.5-0.7-1.6c-0.1-0.1-0.2-0.2-0.3-0.1
				C440.2,293.9,440.2,294.1,440.3,294.2z"/>
		</g>
	</g>
	<g>
		<path class="st8" d="M388.5,349.7h-12.2c-1.7,0-3.1-1.1-3.6-2.6l-5.2-15.9c-0.2-0.7,0.2-1.3,0.9-1.4c9.4-0.7,18.7-0.7,28,0
			c0.7,0.1,1.1,0.7,0.9,1.4l-5.2,15.9C391.6,348.6,390.1,349.7,388.5,349.7z"/>
		<ellipse class="st15" cx="382.5" cy="330.9" rx="13.7" ry="0.8"/>
		<g>
			<g>
				<path class="st13" d="M382.9,319.6c0,0-0.1-8.9-11.3-10.3C371.6,309.3,372,321.9,382.9,319.6z"/>
			</g>
			<g>
				<path class="st13" d="M381.7,309.1c0,0,1.1-8.8,12.4-9C394.1,300.1,392.3,312.6,381.7,309.1z"/>
			</g>
			<g>
				<path class="st7" d="M381.7,301.9v28.9c0.5,0.1,0.9,0.1,1.3,0v-28.9c0-0.4-0.3-0.6-0.6-0.6l0,0
					C382,301.2,381.7,301.5,381.7,301.9z"/>
			</g>
			<g>
				<path class="st7" d="M382.2,309.6c0,0,6.6,6.2,14.1-5.9C396.3,303.7,383.3,301.1,382.2,309.6z"/>
			</g>
			<g>
				<path class="st7" d="M382.7,319.4c0,0,7.3,5.3,13.2-7.7C395.9,311.7,382.6,310.9,382.7,319.4z"/>
			</g>
			<g>
				<path class="st7" d="M382.4,320.6c0,0-0.3-9.1-14.2-5.8C368.2,314.8,375.6,325.8,382.4,320.6z"/>
			</g>
			<g>
				<path class="st7" d="M383,309.1c0,0,0-9.1-14-6.1C369,303,376.1,314.3,383,309.1z"/>
			</g>
		</g>
	</g>
	<g>
		<g>
			<path class="st7" d="M234.6,344.6l-2-0.5c-1.6-0.4-2.6-2-2.2-3.6l13.3-55.3l7.7,1.9l-13.3,55.3C237.8,344,236.2,345,234.6,344.6z
				"/>
			
				<rect x="245" y="274.6" transform="matrix(0.9724 0.2332 -0.2332 0.9724 72.2735 -50.3351)" class="st8" width="7.9" height="11.8"/>
			<path class="st4" d="M259.4,266.3c-0.5,3.2-2,6.5-5.1,9.4l-7.7-1.8c0,0-1.9-5.1,0-9.1c0.4-0.9,0.9-1.6,1.3-2.2c0,0,0,0,0,0
				c3.6-4.7,7.4-0.4,8.2-11.3C256,251.1,260.6,258.5,259.4,266.3z"/>
			<path class="st7" d="M259.4,266.3c-2.3,2-6.1-1.4-7.3-3c-1.5-2-4.1-0.8-4.2-0.7c3.6-4.7,7.4-0.4,8.2-11.3
				C256,251.1,260.6,258.5,259.4,266.3z"/>
		</g>
	</g>
</g>
<g id="DESIGNED_BY_FREEPIK">
</g>
</svg>
